<svg xmlns="http://www.w3.org/2000/svg" viewBox="0 0 512 511.43"><defs><style>.cls-1{fill:#fff;}</style></defs><g id="Capa_2" data-name="Capa 2"><g id="Capa_1-2" data-name="Capa 1"><g id="Capa_2-2" data-name="Capa 2"><g id="Capa_1-2-2" data-name="Capa 1-2"><path class="cls-1" d="M181.69,511.43c0-17,0-33.71-.07-50.38a11.23,11.23,0,0,0-1.56-6.22,162.79,162.79,0,0,1-26.52-56.6,11.47,11.47,0,0,0-1-1.92H99.39v82.12c-2,.14-3.5.32-5,.33H51.06c-29.58-.12-51-21.56-51-51.24Q0,247.36,0,67.18c0-29.6,21.53-50.94,51.23-51h64.24V0h132.2V16.16H459.2C491,16.16,512,37,512,68.72V426.48c0,31.07-21.11,52.23-52.07,52.27H413.06V396.41H359.3c-1.67,5.34-3.23,10.77-5.06,16.1a163.91,163.91,0,0,1-21,40.63,15.89,15.89,0,0,0-2.75,8.41c-.27,16.54-.13,33-.13,49.87ZM99.25,98.74V313.66h32.54V330.2H99.38v16h49.28V290.72c0-13.24,9-20.54,22.06-18C187,275.83,198,288.84,198.14,305.4c.13,16.17,0,32.34.08,48.52,0,5.52,3.54,9.2,8.38,9.09s8-3.61,8.05-8.92q.1-55.23,0-110.48a5.26,5.26,0,0,0-1.56-3.91c-12.16-8-19.41-19.16-22.41-33.27H164.93v15.9H116V173.52h49.44v15.9h25.23a51,51,0,0,1,20.27-32.07,8,8,0,0,0-.27-1.38c-11-23.69-22-47.38-33.19-71-.68-1.37-3.39-2.59-5.17-2.62-17-.19-34-.11-51.09-.11h-5.79V33.08a11,11,0,0,0-1.81-.4c-21.83,0-43.69-.41-65.52.27a36.46,36.46,0,0,0-17.23,5.8c-12.1,7.57-17,22.58-13.07,36.21a33,33,0,0,0,31.1,23.73C65.37,98.9,81.87,98.74,99.25,98.74ZM165.15,289c0,24.29-.15,48.25,0,72.1.2,26.4,6.28,51.68,21.54,73.06a60.17,60.17,0,0,1,11.53,42.51c-.52,6.08-.08,12.25-.08,18.35H313.75c0-12.93.11-25.62-.07-38.31a14.68,14.68,0,0,1,3.26-9.85c16.54-21.48,27-45.69,28.77-72.79,1.38-22.28.82-44.69,1.05-67.05,0-6.15-3.09-9.86-8.06-10s-8.4,3.7-8.42,10.11v55.57H313.74V291.13c0-6.89-3.16-10.75-8.44-10.63s-8.05,3.89-8.06,10.48v71.77H280.7V280.94c0-3.08.16-6.2-.1-9.27a8.1,8.1,0,0,0-8.27-7.68,8.26,8.26,0,0,0-8.13,7.75,44.85,44.85,0,0,0-.09,4.64v86.45H247.57V227.46c0-1.55.07-3.1,0-4.65-.34-4.92-3.64-8.27-8.12-8.34s-7.93,3.26-8.27,8.12c-.11,1.55,0,3.1,0,4.65q0,62.73-.1,125.44a33.51,33.51,0,0,1-2.24,12.49,24.38,24.38,0,0,1-26.66,14.08,24.63,24.63,0,0,1-20.39-23.92c-.21-16.54,0-33.08-.11-49.56-.1-9.66-6.3-16.09-16.49-16.82ZM16.74,102.67c-.13,2-.2,2.68-.2,3.35V429.19c0,16.79,11.94,30.94,28.62,32.55,12.21,1.17,24.64.22,37.08.22V115.53C60,113.8,36.43,120.5,16.74,102.67ZM429.62,462.24h29.87c22.35,0,36-13.65,36-36V103.54c-21.36,11.75-21.36,11.75-46.79,11.75H429.62ZM225.5,148.33c9.65.57,17.84.65,25.9,1.7,3.31.44,4.87.09,6.44-2.86,7.84-14.71,16-29.24,23.78-44,1.75-3.33,3.64-4.58,7.47-4.54,21.82.21,43.67.1,65.51.1,35.76,0,71.52.08,107.29,0,19.42-.07,34.13-15.17,33.57-34.22-.54-18.12-15.25-31.81-34.47-31.83H252.6c-1.49,0-3,.13-5,.22V82.42H194.75Zm71.28,116.95c15.75-4.13,26.58,2,33,16.77,10-3.16,18.61-1.38,26.09,5.51s7.88,16.28,7.59,26.19h32.71v16.41H363.75v16.2h48.86V181.21H313.55V115.29a54.36,54.36,0,0,1-8.27,0c-8.43-1.38-13.25,1.77-16.88,9.74-5.29,11.67-12.06,22.64-18.21,33.93,1.6,1.51,2.87,2.66,4.14,3.87a49,49,0,0,1-5.67,74.9c-4.3,3.09-5,6.27-3.93,10.75,16.75-2.36,22.93.88,32,16.8ZM132.52,16.38V65.3H231V16.38Zm198.13,98.91v49.18H412.5V115.29ZM214.86,219.16c3.2-12.22,10.23-20.07,22.43-21,14.65-1.17,23,7.29,27.13,20.9a32.45,32.45,0,0,0-2.24-45.15,32.93,32.93,0,0,0-45.71.43c-12.45,12-13.38,32.11-1.67,44.89ZM148.69,363.45H99.49V379.3h50.4c-.43-5.44-.84-10.53-1.28-15.85Zm264.11,0H363.45c-.4,5.51-.77,10.66-1.14,15.92H412.8ZM132.66,189.75v16.06h15.68V189.74Z"/><path class="cls-1" d="M314.07,214.07V198.14H396v15.93Z"/><path class="cls-1" d="M396.16,231.29v15.89H347.27V231.29Z"/><path class="cls-1" d="M182,48.92V33.08h32.47V48.92Z"/><path class="cls-1" d="M165.08,33v15.8H149V33Z"/></g></g></g></g></svg>