<svg xmlns="http://www.w3.org/2000/svg" viewBox="0 0 512 471.77"><g id="Capa_2" data-name="Capa 2"><g id="Capa_1-2" data-name="Capa 1"><g id="Capa_2-2" data-name="Capa 2"><g id="Capa_1-2-2" data-name="Capa 1-2"><path d="M186.46,400.23V363a26.65,26.65,0,0,0-.36-2.81h-43c-6.86,0-8-1.15-8-8.16V288.35c-3.72,4.3-7,7.2-9.17,10.8-7,12-16.89,16.31-30.57,14.34-7.49-1.09-15.21-.06-22.91-.26-3.13-.08-4.54.9-5.77,3.95a24.36,24.36,0,0,1-28.16,14.94,24.69,24.69,0,0,1,2.41-48.58,24.1,24.1,0,0,1,25.61,15.08c1.35,3.32,3,4.09,6.34,4,10.67-.17,21.35.12,32-.21a10.25,10.25,0,0,0,6.64-3.11c7.23-8.1,14.12-16.48,21.05-24.87,1.09-1.27,2.38-3,2.42-4.57.24-8.33.11-16.68.11-25.52-2.2-.11-3.93-.28-5.64-.28q-37.62,0-75.23-.09c-3.69,0-5.52,1-7,4.63A23.87,23.87,0,0,1,19.78,263,24.7,24.7,0,0,1,0,238.9a25.08,25.08,0,0,1,19.08-24.09,24.54,24.54,0,0,1,28.08,14.25c1,2.27,1.5,4.42,5,4.4,26.63-.16,53.37-.1,80-.12a20,20,0,0,0,2.77-.46c0-8.49.07-17-.09-25.46a7,7,0,0,0-2-3.62c-7.17-8.64-14.3-17.31-21.73-25.72a9.5,9.5,0,0,0-6.18-2.9c-10.67-.29-21.36.09-32-.25-4-.14-5.32,1.58-6.76,4.9a24.08,24.08,0,0,1-29.69,13.39c-11.49-3.64-18.93-15.49-17-27,2.18-12.83,12.87-21.82,25.53-21,10.36.63,17.75,6,21.64,15.62,1.16,2.86,2.54,3.67,5.41,3.63,12.27-.15,24.54,0,36.76-.15a9.15,9.15,0,0,1,8.14,3.81,179.76,179.76,0,0,0,18,19.84v-62c0-7.1,1.36-8.42,8.43-8.43h43V105.65c0-8.56-.1-17.11,0-25.67,0-3-.67-4.61-3.8-5.86A24.64,24.64,0,1,1,215.7,46.56c2.41,11.53-3.66,22.63-15,27.75-1.47.66-3.48,2.37-3.51,3.63-.27,11.94-.17,23.88-.16,35.84,0,1,.14,2,.23,3.35h53.05V75.64c-1.42-.59-2.9-1.17-4.34-1.82a24.65,24.65,0,1,1,34.2-27.38,24.1,24.1,0,0,1-14.13,27.1c-3.8,1.57-4.92,3.37-4.81,7.35.3,11.92.11,23.84.11,36.12h53.52c0-13.21.1-26.34-.18-39.47,0-1.19-2.27-2.74-3.81-3.43-10.14-4.61-16.39-15-15.13-25.36A24.66,24.66,0,0,1,316.15,27a24.32,24.32,0,0,1,27.54,16.7,24,24,0,0,1-13.26,29.85c-4,1.7-5.07,3.8-4.94,7.84.29,11.42.13,22.83.19,34.24a6.91,6.91,0,0,0,.49,1.54c1.67.08,3.55.24,5.43.26H369c6.65,0,8.07,1.45,8.1,8.25v62l1.13.69c3.55-4.21,7.6-8.07,10.52-12.68,5.78-9.38,13.57-12.68,24.43-11.41,8.8.95,17.75.11,26.63.24,2.74,0,4.31-.43,5.53-3.46,4.61-11.53,16.07-17.75,27.34-15.44a24.68,24.68,0,0,1,.52,48.43c-11.56,2.53-23.16-3.72-27.89-15.38-1-2.54-2.08-3.6-4.89-3.56-11.21.15-22.42-.08-33.63.19a8.88,8.88,0,0,0-5.72,2.8c-7.4,8.43-14.56,17.06-21.7,25.72a8.55,8.55,0,0,0-2.17,4.64c-.22,8-.1,16-.1,24.71,2.14.12,4,.32,5.87.32q37.62,0,75.23.09c3.43,0,5.28-.74,6.74-4.22a24.21,24.21,0,0,1,27.89-14.46,25.12,25.12,0,0,1,19.22,24A24.77,24.77,0,0,1,491.93,263a24.26,24.26,0,0,1-27.25-14.74c-1-2.41-1.66-4.31-5.07-4.3-26.5.15-53,.09-79.51.11a24.07,24.07,0,0,0-3.05.56c0,8.6-.1,17.13.11,25.64,0,1.38,1.27,2.88,2.3,4.07,7.06,8.48,14.11,17,21.4,25.28a8.9,8.9,0,0,0,5.74,2.79c11.2.26,22.41,0,33.61.24,3.63.09,4.31-2,5.43-4.51a24.18,24.18,0,0,1,26.44-14.45,24.59,24.59,0,0,1,3.08,47.85,24,24,0,0,1-29.47-13.85c-1.52-3.69-3.4-4.59-7.05-4.53-12.09.24-24.19.3-36.27,0a10.43,10.43,0,0,1-6.72-3.09c-6.06-6.7-11.72-13.79-18.35-21.71-.15,2.88-.3,4.55-.3,6.21v56.7c0,7.89-1,8.88-9,8.88H326v40.14c14.88,6.92,21.07,16.83,18.39,29.63a24.72,24.72,0,0,1-23.74,19.42,24.44,24.44,0,0,1-24.29-19.3c-2.91-12.88,3-22.59,18.3-29.83V360.52h-53V400.1c15.71,8.23,21.55,17.94,18.17,30.62A24.36,24.36,0,0,1,255,449.32a24.74,24.74,0,0,1-23.3-20.57c-2.09-12.33,4.52-22.45,18.7-28.35V360.45h-53c-.09,1.64-.27,3.32-.27,5,0,10,.17,20-.1,30-.1,3.8,1.09,5.45,4.63,6.92A24.1,24.1,0,0,1,215.93,429c-2.3,11.82-11.59,19.94-23.37,20.41a24.6,24.6,0,0,1-11.83-46.58C182.47,401.91,184.3,401.16,186.46,400.23Zm179.55-51V128.54H146V349.23ZM57.64,170.46a13.84,13.84,0,0,0-13-14.66h-.1A14.15,14.15,0,0,0,29.92,169,14,14,0,0,0,43.11,183.6a13.7,13.7,0,0,0,14.51-12.85c0-.09,0-.18,0-.27ZM468.42,183.6a13.94,13.94,0,0,0,13.73-14.09A14.17,14.17,0,0,0,468,155.77a13.85,13.85,0,0,0-13.59,14.12v.05a13.68,13.68,0,0,0,13.66,13.68h.36Zm-430,55.23a13.41,13.41,0,0,0-13-13.77h-.76A13.94,13.94,0,0,0,10.64,239a14.32,14.32,0,0,0,14,13.95,13.74,13.74,0,0,0,13.71-13.78Zm435.32,0a13.72,13.72,0,0,0,13.53,13.94h.17a14.3,14.3,0,0,0,13.95-13.94A13.88,13.88,0,0,0,487.43,225h0a13.4,13.4,0,0,0-13.71,13.09c0,.27,0,.54,0,.81ZM334.13,424.73a13.84,13.84,0,0,0-13.74-13.94h-.05a14.2,14.2,0,0,0-13.95,13.94,14,14,0,0,0,13.95,13.89,13.66,13.66,0,0,0,13.79-13.52Zm0-373.63a13.85,13.85,0,0,0-13.91-13.79h0a14.26,14.26,0,0,0-13.8,14.13,13.94,13.94,0,0,0,14.14,13.65,13.59,13.59,0,0,0,13.59-13.61V51.1Zm-290,270.75a13.65,13.65,0,0,0,13.56-13.73c0-.13,0-.26,0-.38A13.94,13.94,0,0,0,43.6,294a14.29,14.29,0,0,0-13.7,14.24A13.94,13.94,0,0,0,44.11,321.85Zm424,0a14,14,0,0,0,14.06-13.76A14.28,14.28,0,0,0,468.31,294a14,14,0,0,0-13.95,13.87,13.63,13.63,0,0,0,13.29,14h.44ZM191.79,438.59a14,14,0,0,0,14-13.95,14.22,14.22,0,0,0-14-13.94,13.86,13.86,0,0,0-13.81,13.93v.1a13.68,13.68,0,0,0,13.5,13.86Zm-.1-373.47a14,14,0,0,0,14-13.78,14.25,14.25,0,0,0-13.95-14,14,14,0,0,0-13.86,14,13.64,13.64,0,0,0,13.48,13.78Zm78.22-13.56a13.94,13.94,0,1,0-27.71-3.14,13.28,13.28,0,0,0,0,2.6,13.94,13.94,0,0,0,27.76.54Zm0,373.39a13.94,13.94,0,1,0-27.72-3.06,13.48,13.48,0,0,0,0,2.62,13.94,13.94,0,0,0,27.76.44Z"/><path d="M102.43,444.17a27.78,27.78,0,1,1-27.63-28,27.78,27.78,0,0,1,27.63,28Zm-10.67.14a17.12,17.12,0,0,0-34.24-.47,17.12,17.12,0,1,0,34.24.47Z"/><path d="M492,24.22A24.09,24.09,0,1,1,468.07,0h0A24.26,24.26,0,0,1,492,24.22ZM468,10.75a13.49,13.49,0,0,0-13.5,13.48v.06a13.65,13.65,0,0,0,13.62,13.49,13.47,13.47,0,0,0,13.17-13.34,13.32,13.32,0,0,0-12.95-13.68Z"/><path d="M438.68,394.66a9.29,9.29,0,0,1,.37,18.58c-.21,0-.43,0-.64,0a9.29,9.29,0,0,1,.27-18.57Z"/><path d="M56.86,33.48A9,9,0,0,1,48,42.66h-.19a9.2,9.2,0,0,1-9.41-8.87,9.49,9.49,0,0,1,9.37-9.56A9.21,9.21,0,0,1,56.86,33.48Z"/><path d="M314.73,239.11v50.71c0,6.56-1.56,8.1-8.22,8.1H205.74c-7,0-8.42-1.46-8.42-8.44v-101c0-6.92,1.26-8.26,8-8.26H306.58c6.81,0,8.14,1.27,8.15,8Q314.77,213.73,314.73,239.11Zm-10.9-47.75H208.42V287h95.41Z"/></g></g></g></g></svg>