<svg xmlns="http://www.w3.org/2000/svg" viewBox="0 0 512 442.18"><defs><style>.cls-1{fill:#fff;}</style></defs><g id="Capa_2" data-name="Capa 2"><g id="Capa_1-2" data-name="Capa 1"><g id="Capa_2-2" data-name="Capa 2"><g id="Capa_1-2-2" data-name="Capa 1-2"><path class="cls-1" d="M512,190.14a5.11,5.11,0,0,0-1.11.85,7.29,7.29,0,0,1-9.21,2.94c-3.52-1.34-4.71-4.35-4.69-8V63.13H281.58c-7.64,0-11.31-2.4-11.41-7.43s3.59-7.57,11.18-7.57h215.3V15.4H15.19V48.13H238c1.5,0,3-.11,4.5,0a7.22,7.22,0,0,1,7.07,7.09c.37,3.92-2.67,7.25-6.91,7.76a41.56,41.56,0,0,1-5,.09H15.32v282h5.34q42,0,84,.14a12,12,0,0,1,7.91,2.94,7.71,7.71,0,0,1,1,7.22,10.07,10.07,0,0,1-6.94,4.54c-8.62.54-17.33.22-26,.22-21.34,0-42.68-.23-64,.12-7.66.13-13.2-2.2-16.63-9.12V9.11C3.36,2.19,8.92,0,16.56,0Q256,.22,495.38,0C503,0,508.57,2.21,512,9.11Z"/><path class="cls-1" d="M512,351.16c-3.43,6.9-9,9.14-16.63,9.12-63-.2-126-.12-189-.12h-6.15v28.55c3.81.44,7.76.62,11.6,1.33a40.13,40.13,0,0,1,32.54,38.42c.16,8.24-4.83,13.61-13.15,13.65q-35,.13-70,0c-5.23,0-8.25-2.8-8.37-7.26s3-7.66,8.48-7.67c20.67-.07,41.33,0,62,0h5.44c.08-12.46-11.36-22.94-25-23q-47.77-.15-95.5,0a29.23,29.23,0,0,0-7.39,1A24.51,24.51,0,0,0,183,426.88c1.58.1,3.14.26,4.7.27h36c5.47,0,8.85,2.87,9,7.3s-3.39,7.65-9.11,7.66c-14.16,0-28.34.1-42.5,0-8.84-.06-13.81-5.48-13.45-14.33a40.42,40.42,0,0,1,38.59-38.59c1.67-.07,3.33,0,5.79,0v-29H147.42a19.29,19.29,0,0,1-4.49-.19c-3.82-.91-6.13-3.31-6.08-7.4s2.42-6.48,6.27-7.25a27.88,27.88,0,0,1,5.48-.15H497V225.37c0-7.17,4.48-11.29,10-9.08,1.86.75,3.32,2.55,5,3.87Zm-227.29,9.33H227.37v28.39h57.34Z"/><path class="cls-1" d="M278,99.3c-1.33,3.46,1.1,5.12,4,6.94,13,8,26,16.25,38.87,24.51a5.21,5.21,0,0,0,6.27.21,22.34,22.34,0,0,1,30.6,7.83l.18.3c6.32,11,2.58,24.42-8.92,30.91a5.22,5.22,0,0,0-3.08,5.34q.12,28.74,0,57.48a5.14,5.14,0,0,0,3.12,5.34A22.14,22.14,0,0,1,358.46,268l-.09.17c-5.79,11.06-18.83,15.07-30.51,9.64a6.88,6.88,0,0,0-5.6.19Q301.4,290.8,280.84,304.1a7.11,7.11,0,0,0-2.74,5c-.43,13.65-9.89,23.46-22.83,23.32-12.74-.16-22.09-10.07-22.42-23.32a7.58,7.58,0,0,0-3-5.34c-13.2-8.69-26.67-17.09-39.91-25.67a5.34,5.34,0,0,0-6.21-.4,22.21,22.21,0,0,1-30.05-9.16l0-.07c-5.95-11-2.06-24.14,9.33-30.37,2.55-1.34,3-2.94,3-5.44,0-19.18-.09-38.34,0-57.5a5.17,5.17,0,0,0-3.24-5.34,22.36,22.36,0,0,1,21.56-39.19c2.58,1.43,4.27,1.47,6.67-.12q19.26-12.51,38.75-24.69c2.52-1.58,3.53-3.1,3.32-6.31a22.31,22.31,0,0,1,20.52-23.94q.74-.06,1.47-.06C268,75.39,278.2,85.72,278,99.3ZM263,289.55c3.12.72,7.17,3,9.2,1.87,14.23-8.3,28.07-17.27,41.92-26.18a5,5,0,0,0,1.83-3.88c-.8-10.8,3.37-18.67,12.95-23.86a4,4,0,0,0,1.92-2.92c.12-21,.09-42,.09-63.06-3.21-.64-5.12-4.28-9.17-1.61-13.64,9-27.59,17.43-41.34,26.26a5.82,5.82,0,0,0-2.43,4.18c.26,10.18-3.89,17.62-12.84,22.51a4.66,4.66,0,0,0-2.13,3.32C263,247,263,267.8,263,289.55ZM187.13,168.2c-2.23,2.32-6.32,2-6.24,7.14.33,19.31.08,38.67.25,57.94a6.13,6.13,0,0,0,2.49,4.54c9.07,5.22,12.94,12.94,12.31,23.26a5.63,5.63,0,0,0,2,4.32c13.34,8.74,26.86,17.34,40.35,25.82,3.51,2.21,9.72-1,9.74-5.08.06-19.82.08-39.62-.08-59.44a5.66,5.66,0,0,0-2.5-4c-8.67-5-12.63-12.34-12.41-22.25a5.32,5.32,0,0,0-1.9-4c-14.49-9.54-29.09-18.79-44-28.29ZM269.93,185c14.9-9.33,29.57-18.56,44.16-27.85,3.22-2.06,2.8-11.18-.54-13.34q-20.87-13.25-41.84-26.29a5.08,5.08,0,0,0-4.34-.16,23,23,0,0,1-23.33.16,5.15,5.15,0,0,0-4.34,0Q218.75,130.6,198,144c-3.26,2.11-3.14,11.26.12,13.34q20.37,13.1,40.87,26a5,5,0,0,0,4.28.16c9.07-5.22,17.77-4.59,26.65,1.42ZM263,202.33a7.36,7.36,0,0,0-7.35-7.27,7.53,7.53,0,0,0-7.6,7.44v.13a7.77,7.77,0,0,0,7.42,7.38,7.58,7.58,0,0,0,7.53-7.64Zm-89.34,48.1A7.65,7.65,0,0,0,166,258a7.48,7.48,0,0,0,14.95.27,7.58,7.58,0,0,0-7.26-7.88h-.06Zm165,0a7.59,7.59,0,0,0-7.64,7.06,7.34,7.34,0,0,0,6.81,7.85l.42,0a7.46,7.46,0,0,0,7.68-6.95,7.66,7.66,0,0,0-7.28-8Zm-165-92.61a7.6,7.6,0,0,0,7.31-7.89v0a7.48,7.48,0,0,0-14.95.31A7.66,7.66,0,0,0,173.64,157.82Zm172.3-7.56a7.42,7.42,0,0,0-7.3-7.33,7.34,7.34,0,0,0-7.65,7c0,.14,0,.28,0,.42a7.59,7.59,0,0,0,7.27,7.46A7.69,7.69,0,0,0,345.94,150.26ZM263,98.25a7.31,7.31,0,0,0-7-7.51,7.42,7.42,0,0,0-1.23,14.78l.5,0A7.4,7.4,0,0,0,263,98.49,1.93,1.93,0,0,0,263,98.25ZM255.4,302.7a7.58,7.58,0,0,0-7.35,7.35,7.47,7.47,0,0,0,7.45,7.48h.21a7.34,7.34,0,0,0,7.29-7.38c0-.14,0-.28,0-.42A7.41,7.41,0,0,0,255.4,302.7Z"/><path class="cls-1" d="M73.47,251.11H47c-5.69,0-9.16-3.06-9-7.7s3.44-7.25,8.94-7.27c15.65,0,31.3.1,46.94-.14a12.24,12.24,0,0,0,6.87-2.82c3.47-2.82,6.39-6.32,9.64-9.42,3.88-3.71,8.35-4,11.47-.76s2.83,7.5-1,11.45c-4.4,4.53-8.71,9.22-13.5,13.34a14.06,14.06,0,0,1-7.92,3.2C90.8,251.36,82.13,251.11,73.47,251.11Z"/><path class="cls-1" d="M438.45,251.11c-8.66,0-17.34.22-26-.14a13.1,13.1,0,0,1-7.54-2.88c-5-4.36-9.59-9.24-14.21-14-3.53-3.68-3.66-8-.62-11.08s7.37-2.91,11.13.43a6.19,6.19,0,0,1,1.07,1c7,10.34,16.75,12.92,28.79,11.88,11.07-1,22.28-.24,33.43-.2,5.88,0,9.33,2.74,9.44,7.31s-3.44,7.65-9.56,7.68C455.75,251.13,447.1,251.11,438.45,251.11Z"/><path class="cls-1" d="M73.41,157.14c8.48,0,17-.31,25.45.16a16.08,16.08,0,0,1,8.79,3.5,175.18,175.18,0,0,1,13.5,13.34c3.57,3.72,3.74,8,.73,11.09s-7.56,3-11.48-.65a4,4,0,0,1-.7-.72c-7-10.32-16.72-13-28.77-11.91-11.07,1-22.28.24-33.45.2-6.09,0-9.65-3-9.5-7.71s3.53-7.25,9.45-7.26C56.09,157.11,64.74,157.14,73.41,157.14Z"/><path class="cls-1" d="M438.9,157.14h24.47c7,0,10.67,2.66,10.67,7.62s-3.64,7.36-10.38,7.38c-15,0-30-.15-44.94.14A14,14,0,0,0,411,175.4c-3.51,2.75-6.38,6.31-9.66,9.34-3.65,3.43-8.09,3.56-11.11.52s-3-7.4.56-11.08c4.6-4.82,9.19-9.67,14.21-14a12.94,12.94,0,0,1,7.52-2.92C421.24,156.92,430.07,157.14,438.9,157.14Z"/><path class="cls-1" d="M66.94,144.14H46.47c-5.27-.08-8.63-3.23-8.49-7.73.13-4.28,3.37-7.2,8.46-7.22q20.73-.12,41.44,0c5.08,0,8.18,3,8.18,7.45S93,144,88,144.1C80.92,144.22,73.93,144.14,66.94,144.14Z"/><path class="cls-1" d="M445,144.14H424.52c-5.46,0-8.65-2.93-8.65-7.5s3.21-7.44,8.69-7.47q20.47-.07,40.94,0c5.08,0,8.34,3,8.47,7.24s-3.23,7.63-8.51,7.71C458.66,144.2,451.81,144.14,445,144.14Z"/><path class="cls-1" d="M67.45,264.12h20c5.45,0,8.67,2.93,8.65,7.51s-3.24,7.43-8.7,7.45q-20.2.09-40.44,0c-5.5,0-8.81-2.78-9-7.25s3.32-7.66,9-7.71C53.81,264,60.63,264.12,67.45,264.12Z"/><path class="cls-1" d="M445,264.12c6.82,0,13.64-.08,20.47,0,5.26.08,8.64,3.25,8.49,7.71s-3.4,7.2-8.48,7.23q-20.73.12-41.43,0c-5.07,0-8.18-3-8.18-7.47s3.08-7.38,8.16-7.47C431,264,438,264.12,445,264.12Z"/><path class="cls-1" d="M58.79,307.11c-3.84,0-7.66.11-11.49,0-4.68-.18-7.76-3.2-7.82-7.39a7.33,7.33,0,0,1,7.13-7.51h.51c7.83-.18,15.66-.16,23.47,0,4.71.08,7.76,3.16,7.82,7.34s-3.14,7.42-8.14,7.57C66.45,307.21,62.62,307.11,58.79,307.11Z"/><path class="cls-1" d="M453.22,292.14c3.83,0,7.67-.12,11.5,0,4.66.18,7.73,3.24,7.73,7.42s-3,7.38-7.71,7.47c-7.81.16-15.65.16-23.47,0-4.66-.09-7.73-3.25-7.74-7.44s3.05-7.16,7.7-7.49h12Z"/><path class="cls-1" d="M59,116.11c-4,0-8,.16-12,0a7.39,7.39,0,0,1-7.5-7.25v-.42a7.25,7.25,0,0,1,7.27-7.22h.16q12-.25,24,0a7.44,7.44,0,1,1,.63,14.87h-.63C67,116.25,63,116.11,59,116.11Z"/><path class="cls-1" d="M453,116.12c-3.83,0-7.67.11-11.5,0-4.76-.16-7.8-3-7.93-7.24s3-7.59,8-7.68q11.47-.21,23,0c4.76.08,7.81,3,7.93,7.24s-3,7.44-8,7.71H453Z"/><path class="cls-1" d="M54.3,31.56a7.4,7.4,0,1,1-7.4-7.4h.21A7.43,7.43,0,0,1,54.3,31.56Z"/><path class="cls-1" d="M76.9,24.16a7.46,7.46,0,1,1-7.45,7.46A7.45,7.45,0,0,1,76.9,24.16Z"/><path class="cls-1" d="M106.7,24.15a7.29,7.29,0,1,1-.28,0Z"/></g></g></g></g></svg>