<svg xmlns="http://www.w3.org/2000/svg" viewBox="0 0 512 511.99"><g id="Capa_2" data-name="Capa 2"><g id="Capa_1-2" data-name="Capa 1"><g id="Capa_2-2" data-name="Capa 2"><g id="Capa_1-2-2" data-name="Capa 1-2"><path d="M0,477,97.74,356.86A33.44,33.44,0,0,1,125.18,344c16.67.09,33.34,0,50.4,0v16c-8,0-16-.15-24.12.12a7.71,7.71,0,0,0-5.33,2.52q-40.32,53.44-80.39,107.1c-.41.65-.79,1.31-1.14,2H447c-7.15-8.8-13.81-17-20.49-25.24q-33.57-41.33-67.06-82.66a9.15,9.15,0,0,0-8.38-3.9c-7.47.27-14.94.08-22.67.08V344h21c12.34,0,24.67.13,37,0,11.86-.16,21.2,4.51,28.62,13.65q45.6,56.33,91.35,112.52c1.88,2.31,3.8,4.57,5.71,6.87v35H0Zm16.21,18.66H495.76v-7.4H16.21ZM487,472c-1.84-2.39-3-4-4.23-5.48-26.24-32.29-52.73-64.37-78.56-97-7.32-9.24-16-10.48-26.37-9.16.15.59.12,1,.29,1.17q44,54.26,88.2,108.45a6.28,6.28,0,0,0,4.16,1.92C475.63,472.12,480.79,472,487,472ZM127.73,360.32c-8-1.13-13.53,1.62-18.09,7.24Q71,415.29,32.21,462.88C30,465.64,27.77,468.47,25,472c5.34,0,9.6-.24,13.87.06a8.36,8.36,0,0,0,8.28-4c8.27-11.45,16.88-22.66,25.33-34Z"/><path d="M111,0c9.68,3.37,19.33,6.84,29.06,10.09,17.19,5.75,34.42,11.36,51.62,17.06,7.3,2.41,8.42,4.1,8.42,12,0,30.66-.11,61.33.08,92,0,5.59-2,8.9-7,11.35q-39.89,19.63-79.48,39.68a11.44,11.44,0,0,1-11.3,0Q62.8,162.18,23,142.42c-5-2.45-7.13-5.62-7.09-11.24q.18-46.41.12-92.93c0-6.84,1.33-8.64,7.92-10.82Q62.25,14.67,100.61,2A44.53,44.53,0,0,0,105,0ZM100,162.77c0-28.47,0-56.09-.16-83.71,0-1.48-2-3.62-3.48-4.29C83.57,69.21,70.66,64,57.76,58.57L32,47.83v5c0,23.8.09,47.61-.09,71.41,0,3.75,1.33,5.48,4.54,7.07,19.55,9.57,39,19.38,58.43,29.12C96.32,161.13,97.82,161.77,100,162.77ZM184.08,48.11c-1.88.7-3.26,1.16-4.6,1.72C159.86,58,140.26,66.21,120.56,74.21c-3.4,1.33-4.67,3-4.64,6.84.2,25.47.1,50.93.1,76.4v5.33a25,25,0,0,0,2.39-.85c21-10.47,42-20.89,62.83-31.59,1.49-.76,2.66-3.57,2.66-5.44.22-18.14.14-36.28.14-54.42ZM47.6,36.45a17.88,17.88,0,0,0,2,1.34c18.57,7.77,37.13,15.54,55.73,23.1a9.53,9.53,0,0,0,6.49-.34c17.56-7.14,35-14.48,52.52-21.8,1.34-.54,2.51-1.27,4.38-2.23-19.86-6.59-38.94-13-58-19.2a8.55,8.55,0,0,0-4.86-.12C86.66,23.48,67.38,29.89,47.6,36.45Z"/><path d="M144,258.77v-54c0-6.74,1.48-8.66,8-10.81,33.14-11,66.26-22,99.47-32.78a15.71,15.71,0,0,1,9.11,0C293.78,172,326.9,183,360,194c6.59,2.19,8,4.11,8,10.83,0,36.14-.07,72.29.08,108.44,0,5.41-2.16,8.55-6.89,10.9q-49.62,24.62-99.08,49.55c-4.45,2.24-8.2,2-12.68-.24q-48.93-24.81-98.16-49.11c-5.41-2.67-7.45-6.17-7.36-12.1C144.17,294.41,144,276.59,144,258.77Zm120.13,95.42a10.37,10.37,0,0,0,2-.47c27.7-13.84,55.33-27.74,83.09-41.45,2.78-1.33,2.8-3.21,2.8-5.58v-88c0-1.2-.24-2.42-.41-4.11L264.13,251Zm-16.14.27c0-34.09-.06-67.24.1-100.39,0-3.56-2.28-4-4.5-4.9q-39.12-16.33-78.26-32.6c-1.59-.67-3.23-1.2-5.33-2v5.76c0,28.48.08,57-.1,85.46,0,3.66,1,5.54,4.36,7.18,26.12,12.85,52.12,25.93,78.16,38.93C244,352.72,245.65,353.4,248,354.46Zm88.53-151a28,28,0,0,0-2.66-1.33C308.91,193.89,284,185.58,259,177.49a11.75,11.75,0,0,0-6.67.32c-18.05,5.8-36,11.77-54.05,17.7-7.38,2.44-14.76,4.92-23.13,7.71,2.79,1.21,4.53,2,6.32,2.75,21.64,9,43.42,17.72,64.86,27.22,7,3.1,12.64,3,19.6,0C289,223,312.49,213.51,336.52,203.47Z"/><path d="M504.17,115.56c0,10.16-.13,20.33,0,30.49.08,4.73-1.66,7.84-5.93,9.95q-26.67,13.11-53.16,26.52a10.68,10.68,0,0,1-10.42-.2c-17.34-8.8-34.76-17.56-52.26-26.11-4.69-2.29-6.5-5.55-6.46-10.67.13-20.32,0-40.65,0-61,0-6,1.7-8.38,7.45-10.27,17.52-5.8,35-11.65,52.61-17.25a13.56,13.56,0,0,1,7.68-.13c18,5.76,35.79,11.7,53.64,17.53,5,1.62,7,4.9,6.93,10.13-.2,10.32,0,20.65,0,31Zm-112.1-21c0,16-.08,31.31.15,46.56,0,1.23,2,2.83,3.41,3.56,9.33,4.81,18.67,9.44,28,14.09,2.59,1.34,5.24,2.46,8.4,4v-33.2c0-6,2-13.42-.84-17.54s-10.53-5.48-16.16-7.88C407.66,100.93,400.15,97.9,392.07,94.57Zm96.09,0C475,100,462.75,105,450.6,110.33c-1.27.55-2.35,3-2.4,4.59-.24,8-.1,16-.1,24v24.14c13.33-6.66,26-12.92,38.54-19.3a3.71,3.71,0,0,0,1.45-2.84c.1-15.15.07-30.26.07-46.26ZM407,83.33c11.38,4.76,21.6,9,31.87,13.27a4.17,4.17,0,0,0,2.87-.1C452,92.3,462.13,88,473.25,83.33c-11.05-3.67-21.1-7-31.18-10.32a5.1,5.1,0,0,0-2.92-.16c-10.36,3.37-20.68,6.79-32.11,10.53Z"/><path d="M175.8,392v16c-5.34,0-10.67-.09-16,.07-1.51,0-3.68.34-4.38,1.33-6.78,9.83-13.33,19.81-20.29,30.29h239a24.15,24.15,0,0,0-1.71-2.74c-7.13-8.59-14.4-17.07-21.33-25.79a7.82,7.82,0,0,0-7.2-3.24c-5.12.23-10.24.07-15.59.07V392.15c8.44,0,16.88-.24,25.33.19,1.94.09,4.15,2.09,5.58,3.77,12.8,15.15,25.44,30.41,38.14,45.64,2.42,2.88,3.72,5.92,1.92,9.61s-4.86,4.65-8.66,4.65q-134.59,0-269.06-.2c-2.82,0-6.84-1.94-8.1-4.21s-.68-6.66.83-9.05q14.76-23.16,30.47-45.72a11.69,11.69,0,0,1,7.58-4.6C159.9,391.6,167.58,392,175.8,392Z"/></g></g></g></g></svg>