<svg xmlns="http://www.w3.org/2000/svg" viewBox="0 0 614.24 97.41"><defs><style>.cls-1{fill:#f3c100;}.cls-2,.cls-3{fill:#fff;}.cls-3{stroke:#1f140f;stroke-miterlimit:10;stroke-width:0.25px;}</style></defs><g id="Capa_2" data-name="Capa 2"><g id="Capa_1-2" data-name="Capa 1"><path class="cls-1" d="M26.32,25.15a.77.77,0,0,1-.61-.31.79.79,0,0,1,.13-1.09c7.32-5.72,15.06-11.2,23-16.26a.78.78,0,1,1,.84,1.31c-7.9,5-15.6,10.48-22.88,16.18A.72.72,0,0,1,26.32,25.15Z"/><path class="cls-1" d="M.88,97.41a.74.74,0,0,1-.42-.13.77.77,0,0,1-.36-.63C-.12,87.78,0,78.75.55,69.79a.78.78,0,0,1,1.56.1c-.5,8.52-.66,17.11-.47,25.57l.88-.37A312.28,312.28,0,0,1,3.13,60,.77.77,0,0,1,4,59.26a.78.78,0,0,1,.72.84A313.89,313.89,0,0,0,4.1,95.56a.78.78,0,0,1-.48.76l-2.43,1A.67.67,0,0,1,.88,97.41Z"/><path class="cls-1" d="M6.06,95.48a.8.8,0,0,1-.78-.73,330.06,330.06,0,0,1,0-41.13.78.78,0,1,1,1.55.1,331.77,331.77,0,0,0,0,39.76L8.2,92.8a351.46,351.46,0,0,1-.48-39.25A.78.78,0,0,1,8,53a.74.74,0,0,1,.59-.17c1.06.12,1.58.19,2.62.33a.76.76,0,0,1,.67.79,368.17,368.17,0,0,0,.82,36.9l1.16-.4c-.75-12-.91-24.2-.47-36.36a.81.81,0,0,1,.27-.57.76.76,0,0,1,.6-.18c1.49.17,2.21.26,3.67.45a.79.79,0,0,1,.67.83c-.6,11.27-.69,22.63-.27,33.77l1.49-.58c-.37-10.83-.26-21.86.31-32.8a.79.79,0,0,1,.81-.74c1.4.06,2.09.1,3.49.19a.76.76,0,0,1,.73.81c-.57,10.26-.72,20.6-.47,30.78l1.78-.87c-.14-9.76.07-19.71.63-29.56a.84.84,0,0,1,.3-.56.78.78,0,0,1,.59-.17c1.19.16,1.78.25,3,.43a.77.77,0,0,1,.66.81c-.46,9.11-.64,18.31-.51,27.36l1.47-.57c-.19-8.71-.13-17.56.17-26.32a.77.77,0,0,1,.31-.59.76.76,0,0,1,.65-.14c1.19.26,1.78.41,3,.7a.79.79,0,0,1,.6.79c-.34,8.14-.47,16.36-.38,24.45l1.57-.45c.11-7.71.42-15.56.92-23.31a.82.82,0,0,1,.31-.57.78.78,0,0,1,.62-.15l2.87.6a.8.8,0,0,1,.61.81c-.36,7.13-.58,14.35-.65,21.45l1.19-.2c0-6.77.24-13.64.54-20.44a.8.8,0,0,1,.3-.59.77.77,0,0,1,.65-.14c1.34.3,2,.46,3.31.79a.76.76,0,0,1,.59.81c-.5,6.2-.86,12.43-1.08,18.53.38-.1.72-.2,1.14-.33.45-5.73,1-11.55,1.69-17.32a.77.77,0,0,1,.36-.57.79.79,0,0,1,.67-.08l2.78,1a.77.77,0,0,1,.51.83c-.61,5-1.12,10.13-1.52,15.16l1.48-.08c.63-4.72,1.36-9.52,2.18-14.24a.79.79,0,0,1,1-.63l2.43.68a.79.79,0,0,1,.57.81c-.32,4.1-.6,8.27-.86,12.43l2-.19c0-3.72.09-7.51.18-11.27a.78.78,0,0,1,1-.72c1.06.36,1.58.55,2.63.92a.79.79,0,0,1,.52.76c-.09,3.4-.17,6.76-.22,10l.39-.06c.31-3.43.49-5.3.88-8.93a.82.82,0,0,1,.37-.58.78.78,0,0,1,.68-.07l2.58,1a.81.81,0,0,1,.49.83c-.38,3-.56,4.61-.85,7.33l.59,0c.46-2.4.73-3.75,1.27-6.32a.79.79,0,0,1,.42-.54.76.76,0,0,1,.69,0c1,.49,1.52.75,2.53,1.26a.77.77,0,0,1,.4.88c-.47,1.82-.73,2.87-1.11,4.46l.77,0c.4-1.42.64-2.27,1.09-3.8A.79.79,0,0,1,79.5,71c1.11.61,1.63.91,2.69,1.52a.77.77,0,0,1,.33,1c-.29.68-.5,1.14-.71,1.67l1.07,0,1.43-1.44a.77.77,0,0,1,1.06,0L86.73,75l2.19,0V73.26c-.47.24-.91.46-1.51.78a.77.77,0,0,1-1-.19l-1.32-1.61a.77.77,0,0,1-.18-.62.78.78,0,0,1,.35-.53c1.15-.76,1.78-1.16,2.81-1.81,0-.25-.09-.48-.14-.71-1,.79-1.82,1.39-3.11,2.39a.8.8,0,0,1-.92,0c-.8-.55-1.21-.82-2-1.36a.8.8,0,0,1-.35-.64.76.76,0,0,1,.34-.65c2.21-1.57,3.37-2.37,5.54-3.78,0-.35-.06-.64-.09-.93-2.38,1.49-3.83,2.44-6.41,4.23a.78.78,0,0,1-1-.05c-.82-.69-1.25-1-2.1-1.72A.78.78,0,0,1,78,64.83c3.45-2.18,5.25-3.25,8.69-5.17-.08-.39-.14-.72-.2-1.07-3.35,1.73-6.66,3.57-9.84,5.46a.82.82,0,0,1-.89,0c-1-.75-1.44-1.13-2.42-1.87a.79.79,0,0,1,.09-1.3c4-2.29,8.08-4.47,12.22-6.49-.05-.24-.11-.46-.16-.68C81,55.83,76.52,58.2,72.2,60.71a.77.77,0,0,1-.85-.05l-2-1.44a.79.79,0,0,1,.06-1.32c5-2.84,10-5.47,15.18-8-.09-.47-.17-.85-.25-1.27-5.83,2.8-11.38,5.71-16.92,8.9a.77.77,0,0,1-.9-.09l-2.11-1.81a.73.73,0,0,1-.27-.66.77.77,0,0,1,.38-.61c6.19-3.58,12.4-6.85,19-10-.09-.45-.17-.84-.25-1.27C76.12,46.44,69.39,50,62.7,53.94a.8.8,0,0,1-.83,0c-.95-.61-1.42-.92-2.39-1.53a.77.77,0,0,1-.36-.65.78.78,0,0,1,.37-.67A257,257,0,0,1,82.12,38.66c-.06-.45-.1-.82-.15-1.22A249.5,249.5,0,0,0,57.61,50.73a.79.79,0,0,1-.86,0c-.88-.61-1.32-.91-2.22-1.51a.76.76,0,0,1-.34-.65.8.8,0,0,1,.34-.65A254.87,254.87,0,0,1,81.09,32.6c-.09-.39-.17-.72-.26-1.09a250.63,250.63,0,0,0-28,15.84.79.79,0,0,1-.81,0c-1-.58-1.51-.86-2.53-1.42a.78.78,0,0,1-.07-1.32,253.33,253.33,0,0,1,29.88-17.9c-.12-.55-.22-1-.32-1.46A249.79,249.79,0,0,0,47.4,44.18a.79.79,0,0,1-.81,0c-1.15-.61-1.73-.91-2.9-1.5a.78.78,0,0,1-.42-.64.76.76,0,0,1,.32-.68A253.59,253.59,0,0,1,77.92,20.26c-.13-.54-.22-1-.34-1.46A253.09,253.09,0,0,0,41.31,41.25a.77.77,0,0,1-.87,0c-1.1-.68-1.66-1-2.77-1.68a.78.78,0,0,1-.38-.63.77.77,0,0,1,.31-.66A255.39,255.39,0,0,1,76.42,14c-.15-.41-.28-.75-.43-1.14A255.46,255.46,0,0,0,35.26,38.24a.8.8,0,0,1-.83.07c-1.24-.64-1.85-.94-3.11-1.54a.78.78,0,0,1-.43-.62.77.77,0,0,1,.3-.7A258.6,258.6,0,0,1,74.75,8.15c-.12-.46-.23-.84-.34-1.27A259.71,259.71,0,0,0,29.62,35.43a.78.78,0,0,1-.79.11c-1-.41-1.49-.61-2.5-1a.78.78,0,0,1-.48-.61.75.75,0,0,1,.28-.72A261.2,261.2,0,0,1,72.23,2.91c-.66-.37-1.25-.7-2-1.13A262.85,262.85,0,0,0,23.63,33a.79.79,0,0,1-.78.13l-2.24-.83A.78.78,0,0,1,20.37,31,269.39,269.39,0,0,1,60.75,2.59a.78.78,0,0,1,.78,1.35A267.94,267.94,0,0,0,22.4,31.34l.57.21A265,265,0,0,1,69.82.2a.78.78,0,0,1,.74,0c1.5.82,2.23,1.22,3.7,2.05a.81.81,0,0,1,.4.7.77.77,0,0,1-.43.67A260.83,260.83,0,0,0,28.14,33.57l.86.35A261.64,261.64,0,0,1,74.57,5.05a.79.79,0,0,1,.67,0,.74.74,0,0,1,.43.5l.75,2.83a.78.78,0,0,1-.41.9A258.7,258.7,0,0,0,33.14,35.91l1.56.78A259,259,0,0,1,76.07,11.1a.79.79,0,0,1,.62,0,.85.85,0,0,1,.46.45l1,2.62a.76.76,0,0,1-.38,1A255.27,255.27,0,0,0,39.46,38.87l1.35.81A254.49,254.49,0,0,1,77.77,17a.78.78,0,0,1,1.11.52l.7,3a.78.78,0,0,1-.41.86A253.44,253.44,0,0,0,45.53,41.92l1.37.71A252.88,252.88,0,0,1,79.17,23.42a.77.77,0,0,1,.68,0,.8.8,0,0,1,.42.53c.27,1.22.41,1.83.67,3a.78.78,0,0,1-.41.87A254.31,254.31,0,0,0,51.33,45.2l1,.58A254.94,254.94,0,0,1,81,29.68a.79.79,0,0,1,.67,0,.8.8,0,0,1,.43.52c.25,1.06.37,1.59.62,2.64a.78.78,0,0,1-.42.88A252.46,252.46,0,0,0,56.38,48.56l.84.57A253.08,253.08,0,0,1,82.28,35.56a.81.81,0,0,1,.71,0,.78.78,0,0,1,.4.58L83.74,39a.79.79,0,0,1-.44.79c-7.64,3.69-14.82,7.6-21.92,11.92l.94.61c6.88-4,13.8-7.67,21.15-11.1a.77.77,0,0,1,.68,0,.78.78,0,0,1,.41.54c.24,1.14.35,1.71.58,2.85a.79.79,0,0,1-.43.86c-6.39,3-12.43,6.17-18.44,9.61l.86.74c5.7-3.26,11.42-6.25,17.46-9.12a.78.78,0,0,1,1.11.56c.21,1.14.33,1.7.54,2.85a.77.77,0,0,1-.42.85c-5,2.45-9.8,5-14.57,7.66l.62.44c4.49-2.59,9.13-5,13.8-7.27a.72.72,0,0,1,.67,0,.76.76,0,0,1,.42.53c.22.89.31,1.34.52,2.24a.78.78,0,0,1-.42.87c-4,1.91-7.86,4-11.66,6.13l1.07.83c3.37-2,6.87-3.91,10.4-5.7a.78.78,0,0,1,.7,0,.8.8,0,0,1,.42.56c.2,1.07.31,1.6.51,2.66a.81.81,0,0,1-.39.83c-3.41,1.88-5.19,2.93-8.19,4.82l.82.66c2.66-1.82,4.14-2.78,7.06-4.59a.78.78,0,0,1,1.19.59L89,64.89a.79.79,0,0,1-.35.73c-2.07,1.35-3.22,2.11-5,3.35l.62.41c1.38-1.07,2.19-1.69,3.7-2.8a.78.78,0,0,1,1.23.48c.19,1,.28,1.47.46,2.45a.79.79,0,0,1-.35.81c-1,.64-1.65,1-2.5,1.6.12.15.24.29.36.45.72-.38,1.24-.63,2.1-1.07a.78.78,0,0,1,.77,0,.77.77,0,0,1,.36.66v3.69a.79.79,0,0,1-.77.79c-1.26,0-1.9,0-3.25.06a.73.73,0,0,1-.55-.2l-1-.92c-.36.38-.66.69-1.13,1.16a.74.74,0,0,1-.59.24c-1,0-1.53-.07-2.55-.09a.81.81,0,0,1-.64-.36.85.85,0,0,1-.06-.73c.36-.85.58-1.37.89-2.07l-1.21-.69c-.34,1.17-.57,2-1,3.43a.78.78,0,0,1-.77.57l-2.35,0a.77.77,0,0,1-.6-.3.74.74,0,0,1-.14-.66c.47-2,.73-3.05,1.19-4.83l-1-.52c-.44,2.13-.71,3.47-1.17,5.89A.78.78,0,0,1,73,77l-2.11.2a.78.78,0,0,1-.64-.23.75.75,0,0,1-.21-.63c.33-3.13.51-4.76.88-7.71l-1-.4c-.34,3.19-.52,5-.83,8.53a.78.78,0,0,1-.68.71l-1.9.23a.76.76,0,0,1-.62-.19.8.8,0,0,1-.26-.59c0-3.37.11-6.85.21-10.38l-1.06-.38c-.09,3.64-.14,7.3-.16,10.9a.77.77,0,0,1-.72.77c-1.42.12-2.13.18-3.61.34a.8.8,0,0,1-.62-.22.78.78,0,0,1-.24-.61c.25-4.25.54-8.53.86-12.74l-1-.26c-.8,4.65-1.5,9.35-2.1,14a.79.79,0,0,1-.74.68l-3,.14a.8.8,0,0,1-.6-.23.75.75,0,0,1-.22-.6c.4-5.13.91-10.35,1.53-15.49l-1.25-.44c-.64,5.61-1.19,11.28-1.63,16.85a.79.79,0,0,1-.56.68l-2.67.79A.79.79,0,0,1,47,80c.2-6.26.55-12.66,1.06-19l-1.73-.41c-.28,6.7-.45,13.46-.49,20.1a.78.78,0,0,1-.65.78c-1.1.17-1.65.27-2.75.47a.81.81,0,0,1-.65-.17.82.82,0,0,1-.27-.61c0-7.22.27-14.54.63-21.8L40.88,59C40.39,66.66,40.1,74.37,40,82a.77.77,0,0,1-.57.74c-1.25.35-1.86.51-3.1.88a.76.76,0,0,1-.68-.12.78.78,0,0,1-.32-.62c-.1-8.23,0-16.61.34-24.92l-1.39-.33c-.29,8.6-.33,17.29-.13,25.84a.79.79,0,0,1-.51.75c-1.23.46-1.82.7-3,1.17a.8.8,0,0,1-.72-.07.78.78,0,0,1-.35-.64c-.16-9.22,0-18.6.46-27.89l-1.4-.21c-.54,9.71-.74,19.5-.58,29.11a.75.75,0,0,1-.44.71c-1.31.62-2,.94-3.31,1.62a.79.79,0,0,1-1.14-.68C22.87,76.94,23,66.41,23.56,56l-1.91-.1C21.1,66.68,21,77.59,21.4,88.29a.75.75,0,0,1-.49.75l-3,1.2a.72.72,0,0,1-.71-.06.77.77,0,0,1-.36-.62c-.47-11.32-.4-22.86.19-34.32L14.92,55c-.41,12-.23,24.12.53,35.94a.8.8,0,0,1-.53.8c-1.06.36-1.59.55-2.66.94a.77.77,0,0,1-.68-.08.81.81,0,0,1-.37-.6,368.58,368.58,0,0,1-.9-37.38l-1.06-.14A345.14,345.14,0,0,0,9.8,93.23a.79.79,0,0,1-.46.76c-1.18.55-1.76.83-2.94,1.41A.81.81,0,0,1,6.06,95.48Z"/><path class="cls-1" d="M153.79,25.15a.74.74,0,0,1-.48-.17c-7.27-5.69-15-11.14-22.87-16.18a.78.78,0,0,1,.83-1.31c7.95,5.07,15.69,10.54,23,16.26a.78.78,0,0,1,.14,1.09A.8.8,0,0,1,153.79,25.15Z"/><path class="cls-1" d="M179.23,97.41a.67.67,0,0,1-.31-.07c-1-.41-1.45-.62-2.43-1a.8.8,0,0,1-.48-.76,311.67,311.67,0,0,0-.58-35.46A.78.78,0,1,1,177,60a314.72,314.72,0,0,1,.6,35.1c.33.13.6.24.88.37.19-8.45,0-17-.47-25.57a.8.8,0,0,1,.73-.83.79.79,0,0,1,.83.73c.53,9,.68,18,.45,26.86a.77.77,0,0,1-.36.63A.72.72,0,0,1,179.23,97.41Z"/><path class="cls-1" d="M174.05,95.48a.84.84,0,0,1-.34-.08c-1.19-.59-1.77-.87-2.94-1.41a.78.78,0,0,1-.45-.76,347.64,347.64,0,0,0,.54-38.77l-1.05.14A368.71,368.71,0,0,1,168.9,92a.79.79,0,0,1-1.05.68c-1.06-.39-1.6-.58-2.67-.94a.8.8,0,0,1-.52-.8c.76-11.87.94-24,.54-35.94l-2.1.26c.6,11.46.66,23,.19,34.32a.79.79,0,0,1-1.08.69c-1.17-.48-1.76-.72-3-1.21a.76.76,0,0,1-.49-.75c.38-10.72.3-21.63-.25-32.43-.68,0-1.22,0-1.91.1.56,10.45.69,21,.4,31.34a.76.76,0,0,1-.37.65.79.79,0,0,1-.76,0c-1.33-.67-2-1-3.31-1.62a.76.76,0,0,1-.44-.71c.16-9.6,0-19.4-.57-29.11l-1.41.21c.46,9.3.62,18.68.46,27.89a.83.83,0,0,1-.34.64.77.77,0,0,1-.72.07c-1.21-.48-1.81-.71-3-1.17a.78.78,0,0,1-.5-.75c.19-8.58.15-17.27-.12-25.84l-1.41.33c.33,8.31.45,16.69.34,24.92a.78.78,0,0,1-.32.62.75.75,0,0,1-.68.12c-1.21-.36-1.82-.53-3.09-.88a.78.78,0,0,1-.58-.74c-.1-7.59-.39-15.3-.87-22.92l-1.31.27c.35,7.21.56,14.54.62,21.8a.82.82,0,0,1-.27.61.76.76,0,0,1-.65.16c-1.1-.19-1.64-.29-2.75-.46a.79.79,0,0,1-.65-.78c0-6.62-.2-13.37-.49-20.1L132,61c.5,6.32.86,12.71,1.06,19a.73.73,0,0,1-.31.64.74.74,0,0,1-.69.13L129.39,80a.79.79,0,0,1-.56-.68c-.44-5.58-1-11.25-1.62-16.85-.43.14-.8.28-1.26.44.61,5.13,1.13,10.34,1.54,15.49a.8.8,0,0,1-.23.6.75.75,0,0,1-.6.23l-3-.14a.79.79,0,0,1-.75-.68c-.6-4.69-1.31-9.39-2.1-14l-1,.26c.33,4.25.61,8.53.86,12.74a.75.75,0,0,1-.24.61.8.8,0,0,1-.62.22c-1.48-.16-2.19-.22-3.61-.34a.77.77,0,0,1-.72-.77c0-3.52-.07-7.1-.15-10.9l-1.07.38c.09,3.33.17,6.82.21,10.38a.78.78,0,0,1-.87.78l-1.9-.23a.78.78,0,0,1-.69-.71c-.31-3.47-.48-5.33-.82-8.53l-1,.4c.36,3,.55,4.58.88,7.71a.79.79,0,0,1-.22.63.76.76,0,0,1-.63.23l-2.12-.2a.79.79,0,0,1-.7-.63c-.45-2.39-.72-3.73-1.17-5.89l-1,.52c.47,1.82.72,2.88,1.2,4.83a.82.82,0,0,1-.14.66.79.79,0,0,1-.61.3l-2.35,0h0a.78.78,0,0,1-.75-.57c-.4-1.43-.63-2.27-1-3.43l-1.21.69c.31.7.53,1.22.89,2.07a.79.79,0,0,1-.06.73.8.8,0,0,1-.64.36c-1,0-1.53,0-2.54.09a.76.76,0,0,1-.6-.24l-1.13-1.16-1,.92a.71.71,0,0,1-.55.2c-1.27,0-1.92,0-3.24-.06a.79.79,0,0,1-.78-.79V72a.78.78,0,0,1,.37-.66.76.76,0,0,1,.76,0c.86.44,1.38.69,2.1,1.07l.37-.45c-.85-.56-1.47-1-2.5-1.6a.8.8,0,0,1-.36-.81c.18-.94.27-1.43.45-2.35v-.1a.79.79,0,0,1,.48-.58.77.77,0,0,1,.75.1c1.51,1.11,2.32,1.73,3.7,2.8l.62-.41c-1.75-1.23-2.89-2-5-3.35a.77.77,0,0,1-.36-.73l.25-2.65a.79.79,0,0,1,1.2-.59c2.92,1.81,4.4,2.78,7,4.59l.82-.67c-3-1.89-4.79-2.94-8.18-4.82a.78.78,0,0,1-.39-.83c.19-1.05.29-1.58.5-2.65a.8.8,0,0,1,.42-.56.78.78,0,0,1,.7,0c3.52,1.79,7,3.71,10.4,5.7.39-.31.72-.55,1.08-.83-3.82-2.17-7.73-4.23-11.66-6.13a.77.77,0,0,1-.43-.87c.21-.9.31-1.35.52-2.24a.78.78,0,0,1,.42-.53.72.72,0,0,1,.67,0c4.69,2.24,9.33,4.68,13.81,7.27l.61-.45C104.08,56,99.3,53.44,94.29,51a.78.78,0,0,1-.42-.85l.55-2.85a.76.76,0,0,1,.42-.55.77.77,0,0,1,.68,0c6,2.86,11.74,5.85,17.47,9.12l.85-.74c-6-3.45-12.07-6.6-18.43-9.61a.77.77,0,0,1-.43-.86c.22-1.14.34-1.71.57-2.85a.78.78,0,0,1,.41-.54.8.8,0,0,1,.69,0c7.33,3.42,14.25,7.06,21.14,11.1l.95-.61c-7.11-4.32-14.29-8.23-21.92-11.92a.77.77,0,0,1-.44-.79l0-.16c.12-1,.18-1.61.31-2.7a.8.8,0,0,1,1.11-.61,254,254,0,0,1,25.06,13.57l.85-.57a253.68,253.68,0,0,0-26-14.84.78.78,0,0,1-.41-.88c.24-1.05.36-1.58.62-2.64a.78.78,0,0,1,1.09-.52,255.63,255.63,0,0,1,28.67,16.1l1-.58a253.72,253.72,0,0,0-29.2-17.34.79.79,0,0,1-.4-.87c.26-1.21.39-1.82.66-3a.79.79,0,0,1,.43-.53.77.77,0,0,1,.68,0,255.9,255.9,0,0,1,32.27,19.2l1.36-.7a254.08,254.08,0,0,0-33.64-20.55.77.77,0,0,1-.4-.86c.27-1.21.41-1.83.69-3a.76.76,0,0,1,.44-.53.77.77,0,0,1,.68,0,254.93,254.93,0,0,1,37,22.73l1.35-.81A253.27,253.27,0,0,0,102.36,15.1a.77.77,0,0,1-.38-1l1-2.62a.83.83,0,0,1,.45-.45.81.81,0,0,1,.63,0,258.48,258.48,0,0,1,41.36,25.59l1.57-.78A258.79,258.79,0,0,0,104.1,9.27a.78.78,0,0,1-.4-.9c.29-1.13.44-1.69.74-2.83a.74.74,0,0,1,.43-.5.79.79,0,0,1,.67,0A261.61,261.61,0,0,1,151.1,33.92l.87-.35A260.83,260.83,0,0,0,105.88,3.63a.76.76,0,0,1-.43-.67.81.81,0,0,1,.4-.7c1.48-.84,2.21-1.23,3.7-2a.78.78,0,0,1,.74,0,264.12,264.12,0,0,1,46.85,31.36l.57-.22a267.09,267.09,0,0,0-39.13-27.4.8.8,0,0,1-.29-1.07.78.78,0,0,1,1.07-.28A268.38,268.38,0,0,1,159.74,31a.77.77,0,0,1,.26.73.8.8,0,0,1-.5.6l-2.24.83a.77.77,0,0,1-.77-.13A262.58,262.58,0,0,0,109.93,1.78c-.8.43-1.38.75-2.05,1.13A261.65,261.65,0,0,1,154,33.2a.8.8,0,0,1,.28.72.79.79,0,0,1-.49.61l-2.5,1a.76.76,0,0,1-.78-.11A260,260,0,0,0,105.7,6.88c-.12.43-.22.81-.34,1.27a258.2,258.2,0,0,1,43.56,27.3.78.78,0,0,1-.14,1.32c-1.23.6-1.83.9-3.1,1.54a.78.78,0,0,1-.82-.07,256,256,0,0,0-40.74-25.35c-.15.39-.28.73-.43,1.14a254,254,0,0,1,38.83,24.29.78.78,0,0,1-.08,1.29c-1.11.67-1.67,1-2.77,1.68a.79.79,0,0,1-.87,0A253.31,253.31,0,0,0,102.53,18.8l-.33,1.46a254.84,254.84,0,0,1,34.33,21.15.78.78,0,0,1-.11,1.32c-1.17.59-1.75.89-2.9,1.5a.79.79,0,0,1-.81,0,248.62,248.62,0,0,0-31.57-18.9c-.1.49-.2.91-.31,1.46a254.42,254.42,0,0,1,29.88,17.9.78.78,0,0,1-.07,1.32c-1,.56-1.53.85-2.54,1.42a.79.79,0,0,1-.81,0,249.74,249.74,0,0,0-28-15.84c-.08.37-.16.7-.25,1.09a255.75,255.75,0,0,1,26.55,15.3.78.78,0,0,1,.35.65.77.77,0,0,1-.35.65c-.9.6-1.33.9-2.22,1.51a.79.79,0,0,1-.85,0A250.67,250.67,0,0,0,98.15,37.44c-.05.4-.1.77-.15,1.22a254.2,254.2,0,0,1,22.62,12.41.78.78,0,0,1,.37.67.75.75,0,0,1-.36.65c-1,.61-1.44.92-2.39,1.53a.78.78,0,0,1-.82,0C110.71,50,104,46.44,96.88,43.08c-.09.43-.16.82-.26,1.27,6.55,3.11,12.76,6.38,19,10a.78.78,0,0,1,.12,1.27l-2.11,1.81a.78.78,0,0,1-.91.09c-5.55-3.19-11.09-6.11-16.92-8.9-.08.42-.16.8-.25,1.27,5.21,2.55,10.18,5.19,15.18,8a.77.77,0,0,1,.39.64.81.81,0,0,1-.32.68c-.81.57-1.21.86-2,1.44a.76.76,0,0,1-.85.05c-4.3-2.5-8.76-4.87-13.26-7.05-.05.22-.1.44-.15.68,4.12,2,8.23,4.19,12.21,6.49a.82.82,0,0,1,.4.64.79.79,0,0,1-.31.66c-1,.74-1.46,1.12-2.42,1.87a.8.8,0,0,1-.88,0c-3.2-1.9-6.51-3.73-9.84-5.46-.07.35-.13.68-.21,1.06,3.43,1.92,5.23,3,8.7,5.18a.81.81,0,0,1,.36.62.78.78,0,0,1-.29.65c-.85.69-1.27,1-2.1,1.72a.77.77,0,0,1-.94.05c-2.58-1.78-4-2.74-6.42-4.23,0,.29-.06.58-.09.93C94.85,66,96,66.79,98.22,68.35a.78.78,0,0,1,0,1.29c-.81.54-1.22.81-2,1.36a.8.8,0,0,1-.92,0c-1.28-1-2.06-1.6-3.11-2.39-.05.23-.09.46-.14.71,1,.65,1.68,1.06,2.82,1.81a.74.74,0,0,1,.34.53.8.8,0,0,1-.17.62c-.54.64-.8,1-1.33,1.61a.77.77,0,0,1-1,.19c-.6-.32-1-.54-1.51-.78v1.65l2.19,0,1.36-1.21a.79.79,0,0,1,1.07,0l1.42,1.44,1.08,0c-.22-.53-.43-1-.72-1.67a.78.78,0,0,1,.33-1c1.06-.61,1.59-.91,2.69-1.52a.75.75,0,0,1,.67,0,.79.79,0,0,1,.46.5c.44,1.52.69,2.37,1.09,3.8l.77,0c-.38-1.56-.64-2.61-1.11-4.46a.76.76,0,0,1,.4-.88c1-.51,1.51-.77,2.53-1.26a.76.76,0,0,1,.69,0,.8.8,0,0,1,.41.54c.55,2.6.82,3.94,1.28,6.32l.59,0c-.3-2.71-.48-4.33-.86-7.33a.81.81,0,0,1,.49-.83l2.58-1a.78.78,0,0,1,.68.07.79.79,0,0,1,.37.58c.39,3.64.58,5.51.88,8.93l.39.06c0-3.45-.12-6.81-.21-10a.78.78,0,0,1,.51-.76l2.63-.92a.78.78,0,0,1,1,.72c.1,4,.15,7.65.18,11.27l2,.19c-.24-4.12-.52-8.3-.84-12.43a.79.79,0,0,1,.56-.81l2.43-.68a.79.79,0,0,1,.62.1.76.76,0,0,1,.35.53c.82,4.67,1.55,9.46,2.18,14.24l1.49.08c-.41-5-.93-10.15-1.53-15.16a.79.79,0,0,1,.51-.83c1.1-.39,1.66-.58,2.78-1a.79.79,0,0,1,.67.08.77.77,0,0,1,.36.57c.66,5.75,1.24,11.57,1.7,17.32.41.13.75.23,1.13.33-.22-6.15-.58-12.38-1.08-18.53a.76.76,0,0,1,.59-.81c1.32-.33,2-.49,3.31-.79A.75.75,0,0,1,135,59a.77.77,0,0,1,.31.59c.31,6.83.48,13.7.53,20.44l1.19.2c-.07-7.16-.28-14.37-.65-21.45a.79.79,0,0,1,.62-.81l2.86-.6a.76.76,0,0,1,.62.15.82.82,0,0,1,.31.57c.5,7.74.82,15.59.92,23.31l1.57.45c.09-8.09,0-16.31-.37-24.45a.77.77,0,0,1,.59-.79c1.18-.29,1.77-.44,3-.7a.77.77,0,0,1,.65.14.78.78,0,0,1,.3.59c.3,8.73.36,17.58.17,26.32l1.48.57c.12-9-.06-18.25-.53-27.36a.8.8,0,0,1,.67-.81c1.18-.18,1.77-.27,3-.43a.81.81,0,0,1,.6.17.83.83,0,0,1,.29.56c.56,9.86.77,19.8.63,29.56l1.79.87c.25-10.17.09-20.52-.48-30.78a.77.77,0,0,1,.74-.81c1.41-.1,2.09-.13,3.48-.19A.79.79,0,0,1,160,55c.57,10.92.68,22,.31,32.8l1.49.58c.42-11.14.33-22.5-.27-33.77a.8.8,0,0,1,.67-.83c1.46-.19,2.18-.28,3.68-.45a.75.75,0,0,1,.59.18.74.74,0,0,1,.27.57c.44,12.11.28,24.34-.46,36.36l1.15.4a368.3,368.3,0,0,0,.82-36.9.77.77,0,0,1,.68-.79c1-.15,1.56-.21,2.61-.33a.78.78,0,0,1,.6.17.81.81,0,0,1,.27.56,351.52,351.52,0,0,1-.48,39.25l1.44.68a329.71,329.71,0,0,0,0-39.76.78.78,0,1,1,1.56-.1,332,332,0,0,1,0,41.13.77.77,0,0,1-.38.62A.8.8,0,0,1,174.05,95.48Z"/><path class="cls-2" d="M254.66,43.81c0,4.39-.8,7.22-2.33,8.19-1.18.75-4.53,1.64-13.8,1.64-9.44,0-12.38-1.93-13.18-3.55-.89-1.81-2-8.15-2-28.12,0-8.29,1.43-11.11,2.63-12s5.16-2.1,16.42-2.1c6.24,0,8.61.93,9.49,1.7s1.88,2.78,1.88,8.16l.07,2.92h8.83l-.08-2.73c0-7-1.38-11.62-4.23-14.16S250.45,0,242.7,0c-11.26,0-18.45,1.24-22,3.79-3,2.2-4.89,4.76-5.54,7.63-.62,2.7-.92,9-.92,19.22,0,13.24,1.37,21.48,4.18,25.19s9.26,5.66,19.44,5.66c11.21,0,18.07-1,21-3.17S263.4,51,263.4,42.57V39.2h-8.86Z"/><path class="cls-2" d="M290.82,0C281,0,274.37,1.47,270.65,4.49S265,13.14,265,21.15l-.08,9.58c0,13.74,1.4,22.11,4.28,25.55s10,5.21,21.6,5.21,18.74-1.72,21.63-5.26,4.21-12.07,4.21-26.27c0-13.2-1.44-21.3-4.4-24.75S302.24,0,290.82,0Zm0,7.85c9.56,0,13.15,1.27,14.48,2.33s2.79,3.81,2.79,11.3l0,9.25C308.09,46,306.78,50,306,51s-3.7,2.6-15.21,2.6S276.35,52,275.6,51s-2.09-5-2.09-20.31,1.31-19.25,2.09-20.28S279.3,7.85,290.78,7.85Z"/><path class="cls-2" d="M349.82.6h-28V60.9h29.66c8.24,0,13.85-2.31,16.69-6.88s4.1-12.89,4.1-25.8c0-10.7-1.53-17.81-4.68-21.71S358.44.6,349.82.6ZM330.68,8.45h19.05c6.14,0,10,1.22,11.52,3.65,1.12,1.79,2.44,6.61,2.44,19.39,0,11.59-1.52,16.12-2.8,17.88-1.77,2.44-6,3.68-12.48,3.68H330.68Z"/><path class="cls-2" d="M395.13.6,373,60.9h9.4l4.46-12.28h27.73l4.5,12.28h9.32L405.93.6Zm16.74,40.77H389.61l11.05-30.83Z"/><polygon class="cls-2" points="440.43 0.6 431.57 0.6 431.57 60.9 470.25 60.9 470.25 52.5 440.43 52.5 440.43 0.6"/><polygon class="cls-2" points="468.51 9 487.42 9 487.42 60.9 496.28 60.9 496.28 9 515.01 9 515.01 0.6 468.51 0.6 468.51 9"/><polygon class="cls-2" points="520.9 60.9 560.48 60.9 560.48 53.05 529.77 53.05 529.77 33.71 559.2 33.71 559.2 25.87 529.77 25.87 529.77 8.45 560.48 8.45 560.48 0.6 520.9 0.6 520.9 60.9"/><path class="cls-2" d="M604.55,39.2l.11,4.61c0,4.39-.8,7.22-2.32,8.19-1.19.75-4.54,1.64-13.8,1.64-9.45,0-12.38-1.93-13.19-3.55-.89-1.81-2-8.15-2-28.12,0-8.29,1.43-11.11,2.64-12s5.15-2.1,16.41-2.1c6.24,0,8.61.93,9.5,1.7s1.87,2.78,1.87,8.16l.08,2.92h8.82l-.07-2.73c0-7-1.39-11.62-4.23-14.16S600.46,0,592.7,0c-11.26,0-18.44,1.24-22,3.79-3,2.2-4.89,4.76-5.55,7.63-.62,2.7-.92,9-.92,19.22,0,13.24,1.37,21.48,4.19,25.19s9.25,5.66,19.44,5.66c11.2,0,18.07-1,21-3.17S613.4,51,613.4,42.57V39.2Z"/><path class="cls-3" d="M226.07,90.15H228v.64c0,2.28-.39,3.71-1.17,4.28s-2.73.85-5.86.85q-4.21,0-5.35-1.5c-.76-1-1.14-3.36-1.14-7.08a34.31,34.31,0,0,1,.25-5.48,3.49,3.49,0,0,1,1.48-2c1-.69,3-1,6.14-1q3.21,0,4.32,1t1.11,3.84v.45h-1.88V83.6c0-1.35-.22-2.22-.66-2.6s-1.42-.58-3-.58c-2.7,0-4.35.23-4.95.68s-.89,1.69-.89,3.74q0,7.05.6,8.27c.4.81,1.77,1.21,4.11,1.21s3.62-.17,4.17-.52.83-1.24.83-2.65Z"/><path class="cls-3" d="M236.21,78.83q4.74,0,5.94,1.38t1.19,6.94q0,6-1.14,7.37t-6,1.4q-4.83,0-6-1.39t-1.17-7.16V86.19l0-1.59q0-3.33,1.5-4.55C231.6,79.23,233.47,78.83,236.21,78.83Zm0,1.59c-2.66,0-4.21.29-4.65.88s-.68,2.61-.68,6.07.23,5.48.68,6.07,2,.88,4.65.88,4.21-.29,4.66-.88.68-2.61.68-6.07v-1.1l0-1.58c0-1.85-.31-3-.93-3.52S238.5,80.42,236.2,80.42Z"/><path class="cls-3" d="M245.5,95.75V79h8a5.44,5.44,0,0,1,3.81,1.06,5.08,5.08,0,0,1,1.1,3.71,6.31,6.31,0,0,1-.6,3.24,3.17,3.17,0,0,1-2.29,1.18v0c1.77.14,2.66,1.22,2.66,3.25v4.28h-1.89V91.9c0-2-.85-2.94-2.54-2.94h-6.33v6.79Zm1.89-8.38h5.46a4.73,4.73,0,0,0,2.94-.66,3.09,3.09,0,0,0,.79-2.47,5,5,0,0,0-.58-3,3.29,3.29,0,0,0-2.5-.69h-6.11Z"/><path class="cls-3" d="M261.16,95.75V79h7.67c1.89,0,3.18.36,3.86,1.09s1,2.09,1,4.08-.35,3.23-1.07,3.92-2.06,1-4,1l-.74,0h-4.83v6.6Zm1.89-8.2h4.48c1.87,0,3.07-.19,3.6-.58s.79-1.26.79-2.65a5.6,5.6,0,0,0-.53-3.07c-.36-.43-1.21-.64-2.54-.64l-.72,0h-5.08Z"/><path class="cls-3" d="M282.11,78.83q4.74,0,5.93,1.38c.8.93,1.19,3.24,1.19,6.94q0,6-1.14,7.37c-.76.93-2.76,1.4-6,1.4s-5.22-.46-6-1.39S275,91.22,275,87.37V86.19l0-1.59q0-3.33,1.5-4.55C277.49,79.23,279.36,78.83,282.11,78.83Zm0,1.59c-2.65,0-4.2.29-4.65.88s-.67,2.61-.67,6.07.22,5.48.67,6.07,2,.88,4.65.88,4.22-.29,4.67-.88.67-2.61.67-6.07V84.69c0-1.85-.31-3-.93-3.52S284.4,80.42,282.09,80.42Z"/><path class="cls-3" d="M291.39,95.75V79h8a5.44,5.44,0,0,1,3.81,1.06,5.08,5.08,0,0,1,1.1,3.71,6.31,6.31,0,0,1-.6,3.24,3.2,3.2,0,0,1-2.3,1.18v0c1.78.14,2.67,1.22,2.67,3.25v4.28h-1.89V91.9c0-2-.85-2.94-2.54-2.94h-6.34v6.79Zm1.89-8.38h5.46a4.77,4.77,0,0,0,2.95-.66,3.13,3.13,0,0,0,.78-2.47,5,5,0,0,0-.58-3,3.27,3.27,0,0,0-2.49-.69h-6.12Z"/><path class="cls-3" d="M317.35,92.2h-8.48l-1.29,3.55h-2L311.72,79h2.65l6.26,16.75h-2Zm-.55-1.42-3.72-10.24-3.67,10.24Z"/><path class="cls-3" d="M333.33,90.15h1.88v.64c0,2.28-.39,3.71-1.17,4.28s-2.73.85-5.87.85c-2.8,0-4.59-.5-5.35-1.5s-1.14-3.36-1.14-7.08a33.83,33.83,0,0,1,.26-5.48,3.43,3.43,0,0,1,1.47-2q1.43-1,6.15-1c2.14,0,3.57.33,4.31,1S335,81.76,335,83.66v.45h-1.88V83.6c0-1.35-.22-2.22-.66-2.6a4.93,4.93,0,0,0-3-.58c-2.7,0-4.35.23-4.95.68s-.9,1.69-.9,3.74c0,4.7.21,7.46.61,8.27s1.77,1.21,4.11,1.21,3.61-.17,4.16-.52.83-1.24.83-2.65Z"/><path class="cls-3" d="M339.23,79V95.75h-1.89V79Z"/><path class="cls-3" d="M348.58,78.83q4.76,0,5.94,1.38t1.19,6.94q0,6-1.14,7.37t-6,1.4c-3.21,0-5.21-.46-6-1.39s-1.16-3.31-1.16-7.16V86.19l0-1.59q0-3.33,1.5-4.55C344,79.23,345.84,78.83,348.58,78.83Zm0,1.59c-2.65,0-4.2.29-4.65.88s-.67,2.61-.67,6.07.22,5.48.67,6.07,2,.88,4.65.88,4.21-.29,4.66-.88.68-2.61.68-6.07v-1.1l0-1.58c0-1.85-.31-3-.93-3.52S350.87,80.42,348.57,80.42Zm2.13-6,.74,1.36-3.78,1.89-.6-1Z"/><path class="cls-3" d="M372.18,79V95.75h-3.1l-7-11.4-1.15-1.88-.56-.93-.56-.93h-.05V95.75h-1.89V79H361l6.13,10,1.59,2.63.8,1.3.79,1.32h.05l0-.63V79Z"/><path class="cls-3" d="M381.66,95.75V79h7.75c2.4,0,4,.52,4.87,1.58s1.28,3.08,1.28,6.06c0,3.64-.38,6.06-1.14,7.28s-2.27,1.83-4.53,1.83Zm1.89-1.6H389c2,0,3.3-.4,3.88-1.2s.88-2.59.88-5.36c0-3-.25-5-.76-5.78s-1.71-1.22-3.61-1.22h-5.84Z"/><path class="cls-3" d="M399.29,80.59V86.3h8.5v1.59h-8.5v6.26h8.87v1.6H397.4V79h10.76v1.59Z"/><path class="cls-3" d="M427.17,92.2h-8.48l-1.29,3.55h-2L421.54,79h2.65l6.26,16.75h-2Zm-.55-1.42L422.9,80.54l-3.67,10.24Z"/><path class="cls-3" d="M434.06,79V94h8.61v1.76h-10.5V79Z"/><path class="cls-3" d="M450.19,80.75v15H448.3v-15h-5.46V79h12.77v1.75Z"/><path class="cls-3" d="M467.58,92.2H459.1l-1.29,3.55h-2L462,79h2.65l6.26,16.75h-2ZM467,90.78l-3.72-10.24-3.67,10.24Z"/><path class="cls-3" d="M484.7,80.75v15h-1.88v-15h-5.47V79h12.76v1.75Z"/><path class="cls-3" d="M493,80.59V86.3h8.51v1.59H493v6.26h8.87v1.6H491.12V79h10.76v1.59Z"/><path class="cls-3" d="M515.3,90.15h1.88v.64c0,2.28-.39,3.71-1.17,4.28s-2.73.85-5.87.85c-2.8,0-4.59-.5-5.35-1.5s-1.14-3.36-1.14-7.08a33.83,33.83,0,0,1,.26-5.48,3.43,3.43,0,0,1,1.47-2q1.42-1,6.15-1c2.14,0,3.57.33,4.31,1S517,81.76,517,83.66v.45h-1.88V83.6c0-1.35-.22-2.22-.66-2.6a4.91,4.91,0,0,0-3-.58c-2.7,0-4.35.23-4.95.68s-.89,1.69-.89,3.74q0,7.05.59,8.27c.41.81,1.78,1.21,4.12,1.21s3.61-.17,4.16-.52.83-1.24.83-2.65Z"/><path class="cls-3" d="M533.62,79V95.75h-3.11l-7-11.4-1.14-1.88-.57-.93-.56-.93h-.05V95.75h-1.89V79h3.09l6.13,10,1.59,2.63.8,1.3.79,1.32h0V79Z"/><path class="cls-3" d="M542.93,78.83q4.76,0,5.94,1.38c.8.93,1.19,3.24,1.19,6.94q0,6-1.14,7.37t-6,1.4c-3.21,0-5.21-.46-6-1.39s-1.16-3.31-1.16-7.16V86.19l0-1.59q0-3.33,1.5-4.55C538.32,79.23,540.19,78.83,542.93,78.83Zm0,1.59c-2.65,0-4.2.29-4.65.88s-.67,2.61-.67,6.07.22,5.48.67,6.07,2,.88,4.65.88,4.22-.29,4.67-.88.67-2.61.67-6.07V84.69c0-1.85-.31-3-.93-3.52S545.23,80.42,542.92,80.42Z"/><path class="cls-3" d="M554.11,79V94h8.62v1.76H552.22V79Z"/><path class="cls-3" d="M570.53,78.83q4.76,0,5.94,1.38c.8.93,1.19,3.24,1.19,6.94q0,6-1.14,7.37t-6,1.4c-3.21,0-5.21-.46-6-1.39s-1.16-3.31-1.16-7.16V86.19l0-1.59q0-3.33,1.5-4.55C565.92,79.23,567.79,78.83,570.53,78.83Zm0,1.59c-2.65,0-4.2.29-4.65.88s-.67,2.61-.67,6.07.22,5.48.67,6.07,2,.88,4.65.88,4.22-.29,4.66-.88.68-2.61.68-6.07V84.69c0-1.85-.31-3-.93-3.52S572.83,80.42,570.52,80.42Z"/><path class="cls-3" d="M585.8,87.42H593c0,.43,0,1,0,1.82q0,4.53-1.11,5.61c-.74.71-2.68,1.07-5.8,1.07q-4.43,0-5.7-1.27T579.16,89V85q0-3.72,1.41-5t5.66-1.22c2.85,0,4.68.26,5.51.8S593,81.36,593,83.21v.65h-1.85v-.42c0-1.37-.28-2.21-.84-2.54s-2-.48-4.39-.48c-2.19,0-3.55.26-4.1.78S581,83,581,85.1l0,2.22v2.39c0,2.11.31,3.41.92,3.89s2.23.72,4.88.72c2,0,3.27-.23,3.75-.68s.71-1.66.71-3.6c0-.16,0-.5-.09-1H585.8Z"/><path class="cls-3" d="M598.8,74.38l.74,1.36-3.77,1.89-.62-1ZM597.28,79V95.75h-1.9V79Z"/><path class="cls-3" d="M610.78,92.2h-8.47L601,95.75h-2L605.15,79h2.65l6.26,16.75h-2Zm-.55-1.42-3.72-10.24-3.66,10.24Z"/></g></g></svg>