<svg xmlns="http://www.w3.org/2000/svg" viewBox="0 0 180.11 97.3"><defs><style>.cls-1{fill:#f3c100;}</style></defs><g id="Capa_2" data-name="Capa 2"><g id="Capa_1-2" data-name="Capa 1"><path class="cls-1" d="M26.32,25a.74.74,0,0,1-.61-.31.79.79,0,0,1,.13-1.09c7.32-5.72,15.06-11.2,23-16.26a.78.78,0,0,1,1.08.24.79.79,0,0,1-.24,1.08c-7.9,5-15.6,10.47-22.88,16.17A.72.72,0,0,1,26.32,25Z"/><path class="cls-1" d="M.88,97.3a.74.74,0,0,1-.42-.13.76.76,0,0,1-.36-.63C-.12,87.67,0,78.64.55,69.68a.78.78,0,1,1,1.56.1c-.5,8.52-.66,17.12-.47,25.57L2.52,95a312.28,312.28,0,0,1,.61-35.1A.78.78,0,1,1,4.68,60,314.06,314.06,0,0,0,4.1,95.46a.77.77,0,0,1-.48.75l-2.43,1A.67.67,0,0,1,.88,97.3Z"/><path class="cls-1" d="M6.06,95.37a.77.77,0,0,1-.39-.11.75.75,0,0,1-.39-.62,330.06,330.06,0,0,1,0-41.13.78.78,0,1,1,1.55.1,331.93,331.93,0,0,0,0,39.77l1.44-.69a351.28,351.28,0,0,1-.48-39.24A.79.79,0,0,1,8,52.88a.74.74,0,0,1,.59-.17c1.06.12,1.58.19,2.62.33a.76.76,0,0,1,.67.8,368,368,0,0,0,.82,36.89l1.16-.4c-.75-12-.91-24.2-.47-36.36a.83.83,0,0,1,.27-.57.8.8,0,0,1,.6-.18c1.49.17,2.21.27,3.67.46a.77.77,0,0,1,.67.82c-.6,11.27-.69,22.63-.27,33.77l1.49-.58c-.37-10.83-.26-21.86.31-32.8a.79.79,0,0,1,.81-.74c1.4.06,2.09.1,3.49.19a.76.76,0,0,1,.73.81c-.57,10.26-.72,20.6-.47,30.78l1.78-.87c-.14-9.76.07-19.7.63-29.56a.8.8,0,0,1,.3-.55.71.71,0,0,1,.59-.17c1.19.15,1.78.24,3,.42a.78.78,0,0,1,.66.82c-.46,9.1-.64,18.31-.51,27.35l1.47-.56c-.19-8.72-.13-17.57.17-26.33a.77.77,0,0,1,.31-.59.76.76,0,0,1,.65-.14c1.19.27,1.78.41,3,.7a.79.79,0,0,1,.6.79c-.34,8.14-.47,16.36-.38,24.45.53-.16,1-.28,1.57-.44.11-7.72.42-15.56.92-23.32a.82.82,0,0,1,.31-.57.78.78,0,0,1,.62-.15l2.87.61a.78.78,0,0,1,.61.8c-.36,7.13-.58,14.35-.65,21.46l1.19-.21c0-6.77.24-13.64.54-20.44a.8.8,0,0,1,.3-.59.77.77,0,0,1,.65-.14c1.34.31,2,.46,3.31.79a.76.76,0,0,1,.59.81c-.5,6.2-.86,12.43-1.08,18.54l1.14-.33c.45-5.74,1-11.56,1.69-17.33a.77.77,0,0,1,.36-.57.79.79,0,0,1,.67-.07c1.12.37,1.67.56,2.78,1a.75.75,0,0,1,.51.82c-.61,5-1.12,10.13-1.52,15.16l1.48-.08c.63-4.72,1.36-9.52,2.18-14.24a.79.79,0,0,1,.35-.53.75.75,0,0,1,.62-.09c1,.26,1.46.4,2.43.67a.79.79,0,0,1,.57.81c-.32,4.1-.6,8.27-.86,12.43l2-.19c0-3.72.09-7.51.18-11.27a.78.78,0,0,1,.33-.62.79.79,0,0,1,.7-.1c1.06.36,1.58.55,2.63.92a.79.79,0,0,1,.52.76c-.09,3.4-.17,6.76-.22,10l.39,0c.31-3.44.49-5.31.88-8.94a.82.82,0,0,1,.37-.58.78.78,0,0,1,.68-.07l2.58,1a.79.79,0,0,1,.49.82c-.38,3-.56,4.61-.85,7.33l.59,0c.46-2.4.73-3.75,1.27-6.32a.79.79,0,0,1,.42-.54.76.76,0,0,1,.69,0l2.53,1.26a.77.77,0,0,1,.4.88c-.47,1.82-.73,2.87-1.11,4.47h.77c.4-1.42.64-2.27,1.09-3.8a.79.79,0,0,1,1.12-.47c1.11.61,1.63.91,2.69,1.52a.77.77,0,0,1,.33,1c-.29.68-.5,1.15-.71,1.67l1.07,0,1.43-1.44a.78.78,0,0,1,1.06,0l1.36,1.21,2.19,0V73.15l-1.51.78a.77.77,0,0,1-1-.19l-1.32-1.61a.76.76,0,0,1-.18-.61.8.8,0,0,1,.35-.54c1.15-.76,1.78-1.16,2.81-1.81,0-.25-.09-.48-.14-.71-1,.79-1.82,1.39-3.11,2.4a.8.8,0,0,1-.92,0c-.8-.55-1.21-.82-2-1.36a.8.8,0,0,1-.35-.64.78.78,0,0,1,.34-.65c2.21-1.57,3.37-2.37,5.54-3.78,0-.35-.06-.63-.09-.93C85,65,83.52,66,80.94,67.76a.78.78,0,0,1-1-.05c-.82-.69-1.25-1-2.1-1.72a.81.81,0,0,1-.29-.65.83.83,0,0,1,.37-.62c3.45-2.18,5.25-3.25,8.69-5.17-.08-.39-.14-.71-.2-1.07-3.35,1.73-6.66,3.57-9.84,5.46a.8.8,0,0,1-.89,0L73.31,62a.79.79,0,0,1,.09-1.3c4-2.29,8.08-4.47,12.22-6.49-.05-.24-.11-.46-.16-.68C81,55.73,76.52,58.09,72.2,60.6a.77.77,0,0,1-.85-.05l-2-1.44a.78.78,0,0,1,.06-1.31c5-2.85,10-5.48,15.18-8-.09-.46-.17-.85-.25-1.27-5.83,2.8-11.38,5.72-16.92,8.9a.78.78,0,0,1-.9-.08l-2.11-1.82a.73.73,0,0,1-.27-.66.78.78,0,0,1,.38-.61c6.19-3.58,12.4-6.84,19-10-.09-.46-.17-.85-.25-1.28-7.12,3.36-13.85,6.92-20.54,10.87a.82.82,0,0,1-.83,0c-.95-.61-1.42-.92-2.39-1.52a.8.8,0,0,1-.36-.66.75.75,0,0,1,.37-.66A257,257,0,0,1,82.12,38.55c-.06-.45-.1-.82-.15-1.22A251.64,251.64,0,0,0,57.61,50.62a.79.79,0,0,1-.86,0c-.88-.61-1.32-.91-2.22-1.51a.75.75,0,0,1-.34-.65.8.8,0,0,1,.34-.65,254.87,254.87,0,0,1,26.56-15.3c-.09-.39-.17-.72-.26-1.09a252.22,252.22,0,0,0-28,15.84.76.76,0,0,1-.81,0c-1-.57-1.51-.86-2.53-1.41a.78.78,0,0,1-.4-.65.76.76,0,0,1,.33-.68,253.33,253.33,0,0,1,29.88-17.9c-.12-.54-.22-1-.32-1.46A249.79,249.79,0,0,0,47.4,44.07a.79.79,0,0,1-.81,0c-1.15-.6-1.73-.91-2.9-1.5a.78.78,0,0,1-.42-.64.76.76,0,0,1,.32-.68A254.6,254.6,0,0,1,77.92,20.15c-.13-.54-.22-1-.34-1.46A253.09,253.09,0,0,0,41.31,41.14a.77.77,0,0,1-.87,0c-1.1-.68-1.66-1-2.77-1.68a.78.78,0,0,1-.07-1.29A255.39,255.39,0,0,1,76.42,13.92c-.15-.41-.28-.75-.43-1.14A255.46,255.46,0,0,0,35.26,38.13a.8.8,0,0,1-.83.07c-1.24-.64-1.85-.94-3.11-1.54a.78.78,0,0,1-.13-1.32A258.6,258.6,0,0,1,74.75,8c-.12-.46-.23-.84-.34-1.27A259.71,259.71,0,0,0,29.62,35.32a.78.78,0,0,1-.79.11c-1-.41-1.49-.61-2.5-1a.78.78,0,0,1-.48-.61.75.75,0,0,1,.28-.72A261.2,261.2,0,0,1,72.23,2.8c-.66-.37-1.25-.7-2-1.13A262.85,262.85,0,0,0,23.63,32.93a.79.79,0,0,1-.78.13l-2.24-.83a.79.79,0,0,1-.5-.59.82.82,0,0,1,.26-.74A269.39,269.39,0,0,1,60.75,2.48a.78.78,0,0,1,.78,1.35A268.71,268.71,0,0,0,22.4,31.23l.57.21A265,265,0,0,1,69.82.09a.78.78,0,0,1,.74,0c1.5.82,2.23,1.22,3.7,2.05a.82.82,0,0,1,.4.7.8.8,0,0,1-.43.68A259.71,259.71,0,0,0,28.14,33.47l.86.34A262.83,262.83,0,0,1,74.57,4.94a.79.79,0,0,1,.67,0,.74.74,0,0,1,.43.5l.75,2.83a.78.78,0,0,1-.41.9A258.09,258.09,0,0,0,33.14,35.81l1.56.77A259,259,0,0,1,76.07,11a.79.79,0,0,1,.62,0,.85.85,0,0,1,.46.45l1,2.62a.76.76,0,0,1-.38,1A255.27,255.27,0,0,0,39.46,38.76l1.35.81a254.49,254.49,0,0,1,37-22.73.77.77,0,0,1,.68,0,.79.79,0,0,1,.43.53l.7,3a.8.8,0,0,1-.41.87A253.38,253.38,0,0,0,45.53,41.81l1.37.71A252.88,252.88,0,0,1,79.17,23.31a.81.81,0,0,1,.68,0,.8.8,0,0,1,.42.54c.27,1.21.41,1.82.67,3a.78.78,0,0,1-.41.87A254.38,254.38,0,0,0,51.33,45.1c.34.18.65.36,1,.58A251.84,251.84,0,0,1,81,29.58a.72.72,0,0,1,.67,0,.75.75,0,0,1,.43.52l.62,2.64a.77.77,0,0,1-.42.87A254.33,254.33,0,0,0,56.38,48.45c.27.19.53.37.84.57A253,253,0,0,1,82.28,35.46a.78.78,0,0,1,1.11.61c.14,1.13.21,1.71.35,2.85a.81.81,0,0,1-.44.8c-7.64,3.68-14.82,7.6-21.92,11.92l.94.6c6.88-4,13.8-7.67,21.15-11.1a.77.77,0,0,1,.68,0,.78.78,0,0,1,.41.54c.24,1.14.35,1.71.58,2.85a.79.79,0,0,1-.43.86c-6.39,3-12.43,6.17-18.44,9.61l.86.74c5.7-3.26,11.42-6.25,17.46-9.12a.79.79,0,0,1,.69,0,.79.79,0,0,1,.42.55c.21,1.14.33,1.71.54,2.85a.77.77,0,0,1-.42.85c-5,2.45-9.8,5-14.57,7.66l.62.45c4.49-2.6,9.13-5,13.8-7.28a.72.72,0,0,1,.67,0,.78.78,0,0,1,.42.53c.22.89.31,1.34.52,2.24a.78.78,0,0,1-.42.87c-4,1.91-7.86,4-11.66,6.13l1.07.84c3.37-2,6.87-3.91,10.4-5.71a.77.77,0,0,1,1.12.54c.2,1.07.31,1.6.51,2.66a.81.81,0,0,1-.39.83c-3.41,1.89-5.19,2.93-8.19,4.82l.82.66c2.66-1.82,4.14-2.78,7.06-4.59a.78.78,0,0,1,1.19.59L89,64.78a.79.79,0,0,1-.35.73c-2.07,1.35-3.22,2.11-5,3.35l.62.41c1.38-1.07,2.19-1.69,3.7-2.8a.78.78,0,0,1,1.23.48c.19,1,.28,1.48.46,2.45a.79.79,0,0,1-.35.81c-1,.65-1.65,1-2.5,1.6.12.15.24.29.36.45.72-.38,1.24-.63,2.1-1.07a.78.78,0,0,1,.77,0,.77.77,0,0,1,.36.66v3.7a.78.78,0,0,1-.77.78l-3.25.06a.73.73,0,0,1-.55-.2l-1-.91-1.13,1.16a.76.76,0,0,1-.59.23c-1,0-1.53-.07-2.55-.09a.79.79,0,0,1-.64-.36.85.85,0,0,1-.06-.73c.36-.85.58-1.37.89-2.07l-1.21-.69c-.34,1.17-.57,2-1,3.43a.78.78,0,0,1-.77.57l-2.35,0a.77.77,0,0,1-.6-.3.74.74,0,0,1-.14-.66c.47-2,.73-3.05,1.19-4.83l-1-.52c-.44,2.14-.71,3.47-1.17,5.89a.78.78,0,0,1-.7.63l-2.11.2a.78.78,0,0,1-.64-.23.75.75,0,0,1-.21-.63c.33-3.13.51-4.76.88-7.71l-1-.4c-.34,3.19-.52,5-.83,8.54a.78.78,0,0,1-.68.7l-1.9.23a.76.76,0,0,1-.62-.19.8.8,0,0,1-.26-.59c0-3.37.11-6.85.21-10.38l-1.06-.38c-.09,3.65-.14,7.3-.16,10.9a.77.77,0,0,1-.72.77c-1.42.12-2.13.18-3.61.34a.8.8,0,0,1-.62-.22.78.78,0,0,1-.24-.61c.25-4.25.54-8.53.86-12.73l-1-.27c-.8,4.65-1.5,9.35-2.1,14a.79.79,0,0,1-.74.68l-3,.14a.8.8,0,0,1-.6-.23.75.75,0,0,1-.22-.6c.4-5.13.91-10.34,1.53-15.49l-1.25-.44c-.64,5.61-1.19,11.28-1.63,16.85a.81.81,0,0,1-.56.69c-1.07.3-1.61.46-2.67.79a.82.82,0,0,1-.7-.13.77.77,0,0,1-.31-.65c.2-6.26.55-12.66,1.06-19l-1.73-.41c-.28,6.7-.45,13.46-.49,20.11a.78.78,0,0,1-.65.77c-1.1.17-1.65.27-2.75.47a.81.81,0,0,1-.65-.17.82.82,0,0,1-.27-.61c0-7.21.27-14.54.63-21.8l-1.31-.27c-.49,7.63-.78,15.33-.88,22.92a.77.77,0,0,1-.57.74l-3.1.88a.76.76,0,0,1-.68-.12.78.78,0,0,1-.32-.62c-.1-8.23,0-16.61.34-24.92l-1.39-.33c-.29,8.6-.33,17.29-.13,25.84a.79.79,0,0,1-.51.75c-1.23.46-1.82.7-3,1.17a.8.8,0,0,1-.72-.07.78.78,0,0,1-.35-.64c-.16-9.22,0-18.6.46-27.89l-1.4-.21c-.54,9.71-.74,19.5-.58,29.11a.77.77,0,0,1-.44.72c-1.31.62-2,.93-3.31,1.61a.77.77,0,0,1-.75,0,.76.76,0,0,1-.39-.65c-.28-10.35-.14-20.89.41-31.34l-1.91-.1C21.1,66.57,21,77.48,21.4,88.18a.77.77,0,0,1-.49.76c-1.18.45-1.78.7-3,1.2a.78.78,0,0,1-1.07-.69c-.47-11.31-.4-22.86.19-34.32l-2.09-.26c-.41,12-.23,24.12.53,35.95a.79.79,0,0,1-.53.79c-1.06.36-1.59.55-2.66.94a.77.77,0,0,1-.68-.08.81.81,0,0,1-.37-.59,368.85,368.85,0,0,1-.9-37.39l-1.06-.13A345,345,0,0,0,9.8,93.12a.79.79,0,0,1-.46.76c-1.18.56-1.76.83-2.94,1.41A.81.81,0,0,1,6.06,95.37Z"/><path class="cls-1" d="M153.79,25a.74.74,0,0,1-.48-.17c-7.27-5.69-15-11.14-22.87-16.17a.78.78,0,0,1,.83-1.32c7.95,5.07,15.69,10.54,23,16.26a.78.78,0,0,1,.14,1.09A.77.77,0,0,1,153.79,25Z"/><path class="cls-1" d="M179.23,97.3a.67.67,0,0,1-.31-.07l-2.43-1a.79.79,0,0,1-.48-.75A311.81,311.81,0,0,0,175.43,60a.79.79,0,0,1,.72-.84.8.8,0,0,1,.84.73,314.72,314.72,0,0,1,.6,35.1l.88.37c.19-8.45,0-17-.47-25.57a.8.8,0,0,1,.73-.83.79.79,0,0,1,.83.73c.53,9,.68,18,.45,26.86a.76.76,0,0,1-.36.63A.72.72,0,0,1,179.23,97.3Z"/><path class="cls-1" d="M174.05,95.37a.84.84,0,0,1-.34-.08c-1.19-.59-1.77-.86-2.94-1.41a.78.78,0,0,1-.45-.76,347.46,347.46,0,0,0,.54-38.76l-1.05.13a369,369,0,0,1-.91,37.39.79.79,0,0,1-1.05.67c-1.06-.39-1.6-.58-2.67-.94a.8.8,0,0,1-.52-.79c.76-11.88.94-24,.54-35.95l-2.1.26c.6,11.46.66,23,.19,34.32a.75.75,0,0,1-.36.62.77.77,0,0,1-.72.07c-1.17-.48-1.76-.72-3-1.2a.78.78,0,0,1-.49-.76c.38-10.72.3-21.62-.25-32.43-.68,0-1.22,0-1.91.1.56,10.45.69,21,.4,31.34a.74.74,0,0,1-.37.65.79.79,0,0,1-.76,0c-1.33-.67-2-1-3.31-1.61a.79.79,0,0,1-.44-.72c.16-9.6,0-19.4-.57-29.11l-1.41.21c.46,9.3.62,18.68.46,27.89a.83.83,0,0,1-.34.64.77.77,0,0,1-.72.07c-1.21-.48-1.81-.71-3-1.17a.78.78,0,0,1-.5-.75c.19-8.58.15-17.27-.12-25.84l-1.41.33c.33,8.31.45,16.69.34,24.92a.78.78,0,0,1-.32.62.75.75,0,0,1-.68.12c-1.21-.35-1.82-.53-3.09-.88a.78.78,0,0,1-.58-.74c-.1-7.59-.39-15.3-.87-22.92l-1.31.27c.35,7.21.56,14.54.62,21.8a.82.82,0,0,1-.27.61.8.8,0,0,1-.65.17c-1.1-.2-1.64-.3-2.75-.47a.79.79,0,0,1-.65-.77c0-6.63-.2-13.38-.49-20.11l-1.73.41c.5,6.32.86,12.71,1.06,19a.75.75,0,0,1-.31.65.8.8,0,0,1-.69.13c-1.07-.33-1.6-.49-2.68-.79a.81.81,0,0,1-.56-.69c-.44-5.58-1-11.25-1.62-16.85-.43.14-.8.28-1.26.44.61,5.13,1.13,10.34,1.54,15.49a.8.8,0,0,1-.23.6.72.72,0,0,1-.6.23l-3-.14a.79.79,0,0,1-.75-.68c-.6-4.69-1.31-9.39-2.1-14l-1,.27c.33,4.24.61,8.52.86,12.73a.75.75,0,0,1-.24.61.8.8,0,0,1-.62.22c-1.48-.16-2.19-.22-3.61-.34a.77.77,0,0,1-.72-.77c0-3.52-.07-7.09-.15-10.9l-1.07.38c.09,3.34.17,6.82.21,10.38a.78.78,0,0,1-.87.78l-1.9-.23a.78.78,0,0,1-.69-.7c-.31-3.48-.48-5.34-.82-8.54l-1,.4c.36,3,.55,4.59.88,7.71a.79.79,0,0,1-.22.63.76.76,0,0,1-.63.23l-2.12-.2a.79.79,0,0,1-.7-.63c-.45-2.39-.72-3.72-1.17-5.89l-1,.52c.47,1.82.72,2.88,1.2,4.83a.82.82,0,0,1-.14.66.79.79,0,0,1-.61.3l-2.35,0h0a.78.78,0,0,1-.75-.57c-.4-1.43-.63-2.27-1-3.43l-1.21.69c.31.7.53,1.22.89,2.07a.79.79,0,0,1-.06.73.77.77,0,0,1-.64.36c-1,0-1.53,0-2.54.09a.78.78,0,0,1-.6-.23l-1.13-1.16-1,.91a.71.71,0,0,1-.55.2l-3.24-.06a.78.78,0,0,1-.78-.78v-3.7a.78.78,0,0,1,.37-.66.76.76,0,0,1,.76,0c.86.44,1.38.69,2.1,1.07l.37-.45c-.85-.56-1.47-1-2.5-1.6a.8.8,0,0,1-.36-.81c.18-.94.27-1.43.45-2.35V67a.79.79,0,0,1,.48-.58.77.77,0,0,1,.75.1c1.51,1.11,2.32,1.73,3.7,2.8l.62-.41c-1.75-1.23-2.89-2-5-3.35a.77.77,0,0,1-.36-.73l.25-2.65a.77.77,0,0,1,.44-.63.79.79,0,0,1,.76,0c2.92,1.81,4.4,2.78,7,4.59l.82-.67c-3-1.89-4.79-2.93-8.18-4.82a.77.77,0,0,1-.39-.82c.19-1.06.29-1.59.5-2.66a.76.76,0,0,1,.42-.55.75.75,0,0,1,.7,0c3.52,1.79,7,3.71,10.4,5.71.39-.32.72-.56,1.08-.84-3.82-2.17-7.73-4.22-11.66-6.13a.77.77,0,0,1-.43-.87c.21-.9.31-1.35.52-2.24a.81.81,0,0,1,.42-.53.72.72,0,0,1,.67,0C99.13,54,103.77,56.4,108.25,59l.61-.46c-4.78-2.69-9.56-5.2-14.57-7.65a.78.78,0,0,1-.42-.85l.55-2.85a.76.76,0,0,1,.42-.55.77.77,0,0,1,.68,0c6,2.86,11.74,5.86,17.47,9.12l.85-.74c-6-3.45-12.07-6.6-18.43-9.61a.76.76,0,0,1-.43-.86c.22-1.14.34-1.71.57-2.85a.78.78,0,0,1,.41-.54.8.8,0,0,1,.69,0c7.33,3.43,14.25,7.06,21.14,11.1l.95-.6c-7.11-4.33-14.29-8.24-21.92-11.92a.79.79,0,0,1-.44-.8l0-.16c.12-1,.18-1.61.31-2.69a.79.79,0,0,1,.41-.59.75.75,0,0,1,.7,0A251.89,251.89,0,0,1,122.89,49c.32-.2.58-.38.85-.57a255.57,255.57,0,0,0-26-14.84.77.77,0,0,1-.41-.87c.24-1.06.36-1.58.62-2.64a.74.74,0,0,1,.42-.52.72.72,0,0,1,.67,0,252.52,252.52,0,0,1,28.67,16.1l1-.58a252.37,252.37,0,0,0-29.2-17.35.79.79,0,0,1-.4-.87c.26-1.21.39-1.82.66-3a.78.78,0,0,1,.43-.54.81.81,0,0,1,.68,0,255.9,255.9,0,0,1,32.27,19.2l1.36-.7a254,254,0,0,0-33.64-20.54.79.79,0,0,1-.4-.87c.27-1.21.41-1.83.69-3a.79.79,0,0,1,1.12-.52,254.93,254.93,0,0,1,37,22.73l1.35-.81A254.07,254.07,0,0,0,102.36,15a.77.77,0,0,1-.38-1l1-2.62a.83.83,0,0,1,.45-.45.81.81,0,0,1,.63,0,258.43,258.43,0,0,1,41.36,25.58l1.57-.77A258.18,258.18,0,0,0,104.1,9.16a.77.77,0,0,1-.4-.9c.29-1.13.44-1.69.74-2.83a.74.74,0,0,1,.43-.5.79.79,0,0,1,.67,0A262.2,262.2,0,0,1,151.1,33.81l.87-.34A259.71,259.71,0,0,0,105.88,3.53a.78.78,0,0,1-.43-.68.82.82,0,0,1,.4-.7l3.7-2a.78.78,0,0,1,.74,0,264.12,264.12,0,0,1,46.85,31.36l.57-.22a267.86,267.86,0,0,0-39.13-27.4.78.78,0,1,1,.78-1.35A268.38,268.38,0,0,1,159.74,30.9a.78.78,0,0,1-.24,1.33l-2.24.83a.77.77,0,0,1-.77-.13A262.58,262.58,0,0,0,109.93,1.67c-.8.43-1.38.75-2.05,1.13A261.65,261.65,0,0,1,154,33.09a.8.8,0,0,1,.28.72.79.79,0,0,1-.49.61l-2.5,1a.76.76,0,0,1-.78-.11A260.62,260.62,0,0,0,105.7,6.77c-.12.43-.22.81-.34,1.27a258.2,258.2,0,0,1,43.56,27.3.77.77,0,0,1,.3.7.76.76,0,0,1-.44.62c-1.23.6-1.83.9-3.1,1.54a.78.78,0,0,1-.82-.07,256,256,0,0,0-40.74-25.35c-.15.39-.28.73-.43,1.14a254,254,0,0,1,38.83,24.29.78.78,0,0,1,.3.67.75.75,0,0,1-.38.62c-1.11.67-1.67,1-2.77,1.68a.79.79,0,0,1-.87,0,253.31,253.31,0,0,0-36.27-22.45l-.33,1.46A255.86,255.86,0,0,1,136.53,41.3a.78.78,0,0,1-.11,1.32c-1.17.59-1.75.9-2.9,1.5a.79.79,0,0,1-.81,0,249.79,249.79,0,0,0-31.57-18.9c-.1.5-.2.92-.31,1.46a254.42,254.42,0,0,1,29.88,17.9.79.79,0,0,1,.33.69.81.81,0,0,1-.4.64c-1,.55-1.53.84-2.54,1.41a.76.76,0,0,1-.81,0,252.92,252.92,0,0,0-28-15.84c-.08.37-.16.7-.25,1.09a255.75,255.75,0,0,1,26.55,15.3.78.78,0,0,1,.35.65.76.76,0,0,1-.35.65c-.9.6-1.33.9-2.22,1.51a.79.79,0,0,1-.85,0A252.83,252.83,0,0,0,98.15,37.33c-.05.4-.1.77-.15,1.22A254.28,254.28,0,0,1,120.62,51a.75.75,0,0,1,.37.66.77.77,0,0,1-.36.66c-1,.6-1.44.91-2.39,1.52a.8.8,0,0,1-.82,0c-6.71-4-13.43-7.51-20.54-10.87-.09.43-.16.82-.26,1.28,6.55,3.11,12.76,6.37,19,10a.8.8,0,0,1,.39.61.78.78,0,0,1-.27.66l-2.11,1.82a.8.8,0,0,1-.91.08c-5.55-3.19-11.09-6.11-16.92-8.9-.08.42-.16.81-.25,1.27,5.21,2.55,10.18,5.19,15.18,8a.75.75,0,0,1,.39.63.79.79,0,0,1-.32.68c-.81.57-1.21.86-2,1.44a.76.76,0,0,1-.85.05c-4.3-2.5-8.76-4.87-13.26-7.05-.05.22-.1.44-.15.68,4.12,2,8.23,4.19,12.21,6.49a.82.82,0,0,1,.4.64.79.79,0,0,1-.31.66l-2.42,1.87a.79.79,0,0,1-.88,0c-3.2-1.9-6.51-3.73-9.84-5.46-.07.36-.13.68-.21,1.06,3.43,1.92,5.23,3,8.7,5.18a.82.82,0,0,1,.36.62.78.78,0,0,1-.29.65c-.85.69-1.27,1-2.1,1.72a.77.77,0,0,1-.94.05c-2.58-1.78-4-2.74-6.42-4.23,0,.3-.06.58-.09.93,2.18,1.42,3.34,2.22,5.55,3.78a.79.79,0,0,1,.33.65.78.78,0,0,1-.35.64c-.81.54-1.22.81-2,1.36a.8.8,0,0,1-.92,0c-1.28-1-2.06-1.61-3.11-2.4-.05.23-.09.46-.14.71,1,.65,1.68,1.06,2.82,1.81a.75.75,0,0,1,.34.54.79.79,0,0,1-.17.61c-.54.64-.8,1-1.33,1.61a.77.77,0,0,1-1,.19l-1.51-.78V74.8l2.19,0,1.36-1.21a.8.8,0,0,1,1.07,0l1.42,1.44,1.08,0-.72-1.67a.78.78,0,0,1,.33-1c1.06-.61,1.59-.91,2.69-1.52a.75.75,0,0,1,.67,0,.79.79,0,0,1,.46.5c.44,1.53.69,2.37,1.09,3.8h.77c-.38-1.57-.64-2.62-1.11-4.47a.76.76,0,0,1,.4-.88l2.53-1.26a.76.76,0,0,1,.69,0,.8.8,0,0,1,.41.54c.55,2.6.82,4,1.28,6.32l.59,0c-.3-2.71-.48-4.33-.86-7.33a.79.79,0,0,1,.49-.82l2.58-1a.78.78,0,0,1,.68.07.79.79,0,0,1,.37.58c.39,3.64.58,5.51.88,8.94l.39,0c0-3.45-.12-6.81-.21-10a.78.78,0,0,1,.51-.76l2.63-.92a.79.79,0,0,1,.7.1.78.78,0,0,1,.33.62c.1,4,.15,7.65.18,11.27l2,.19c-.24-4.12-.52-8.3-.84-12.43a.79.79,0,0,1,.56-.81c1-.27,1.45-.41,2.43-.67a.77.77,0,0,1,1,.62c.82,4.67,1.55,9.46,2.18,14.24l1.49.08c-.41-5-.93-10.15-1.53-15.16a.78.78,0,0,1,.51-.82c1.1-.4,1.66-.59,2.78-1a.79.79,0,0,1,.67.07.77.77,0,0,1,.36.57c.66,5.75,1.24,11.57,1.7,17.33l1.13.33c-.22-6.16-.58-12.39-1.08-18.54a.76.76,0,0,1,.59-.81c1.32-.33,2-.48,3.31-.79a.75.75,0,0,1,.65.14.77.77,0,0,1,.31.59c.31,6.83.48,13.7.53,20.44l1.19.21c-.07-7.16-.28-14.38-.65-21.46a.78.78,0,0,1,.62-.8l2.86-.61a.76.76,0,0,1,.62.15.82.82,0,0,1,.31.57c.5,7.74.82,15.59.92,23.32l1.57.44c.09-8.09,0-16.31-.37-24.45a.78.78,0,0,1,.59-.79c1.18-.29,1.77-.43,3-.7a.77.77,0,0,1,.65.14.8.8,0,0,1,.3.59c.3,8.73.36,17.58.17,26.33l1.48.56c.12-9-.06-18.24-.53-27.35a.81.81,0,0,1,.67-.82c1.18-.18,1.77-.27,3-.42a.73.73,0,0,1,.6.17.79.79,0,0,1,.29.55c.56,9.86.77,19.81.63,29.56l1.79.87c.25-10.17.09-20.51-.48-30.78a.78.78,0,0,1,.74-.81c1.41-.1,2.09-.13,3.48-.19a.79.79,0,0,1,.81.74c.57,10.92.68,22,.31,32.8l1.49.58c.42-11.14.33-22.5-.27-33.77a.78.78,0,0,1,.67-.82c1.46-.2,2.18-.29,3.68-.46a.79.79,0,0,1,.59.18.76.76,0,0,1,.27.57c.44,12.11.28,24.34-.46,36.36l1.15.4a368.17,368.17,0,0,0,.82-36.89.78.78,0,0,1,.68-.8c1-.15,1.56-.21,2.61-.33a.78.78,0,0,1,.6.17.81.81,0,0,1,.27.57,351.37,351.37,0,0,1-.48,39.24l1.44.69a329.87,329.87,0,0,0,0-39.77.78.78,0,1,1,1.56-.1,332,332,0,0,1,0,41.13.76.76,0,0,1-.38.62A.8.8,0,0,1,174.05,95.37Z"/></g></g></svg>