<svg xmlns="http://www.w3.org/2000/svg" viewBox="0 0 1432.54 261.04"><defs><style>.cls-1{fill:#d9292e;}.cls-2{fill:#5ab3e5;}.cls-3{fill:#0e56a7;}.cls-4{fill:#439a48;}.cls-5{fill:#fff;}</style></defs><g id="Capa_2" data-name="Capa 2"><g id="Capa_1-2" data-name="Capa 1"><g id="Capa_2-2" data-name="Capa 2"><g id="Capa_1-2-2" data-name="Capa 1-2"><rect class="cls-1" width="151.79" height="130.52"/><rect class="cls-2" y="130.52" width="151.79" height="130.52"/><rect class="cls-3" x="151.79" width="151.79" height="130.52"/><rect class="cls-4" x="151.79" y="130.52" width="151.79" height="130.52"/><polygon class="cls-5" points="66.71 108.38 14.47 105.92 15.48 84.8 67.58 91.02 53.83 42.54 73.51 37.33 85.23 85.81 127.48 59.62 137.32 75.39 95.07 101.72 133.13 133.13 120.1 149.04 82.48 115.04 65.26 164.81 46.16 156.71 66.71 108.38"/><polygon class="cls-5" points="132.26 200.84 92.17 234.27 78.57 217.92 121.11 187.39 78.28 160.91 89.28 143.83 130.81 171.62 144.12 123.86 162.07 128.78 148.61 176.68 197.95 174.22 199.11 194.77 148.32 195.06 169.3 243.39 149.77 250.33 132.26 200.84"/><polygon class="cls-5" points="170.6 86.24 128.64 117.5 116.05 100.42 160.33 72.35 119.09 43.41 130.96 27.06 170.89 57.16 186.81 10.13 204.46 16.06 188.4 63.09 237.74 63.38 237.74 83.93 187.1 81.47 205.33 130.81 185.36 136.74 170.6 86.24"/><polygon class="cls-5" points="222.12 163.51 169.88 164.81 169.44 143.69 221.68 146.15 204.61 98.69 223.85 92.17 239.05 139.78 279.27 110.55 290.27 125.6 250.04 154.83 290.13 183.48 278.4 200.27 238.32 169.01 224.87 219.95 205.04 213.29 222.12 163.51"/><path d="M1432.54,106.36H1427V38.92h5.5Zm-24.89-18.82v-6.8a28.93,28.93,0,0,1-8.39,1.6h-8.54a15.74,15.74,0,0,0-7.38,3.32,9.27,9.27,0,0,0-3.61,7,8,8,0,0,0,3.47,6.94,11.45,11.45,0,0,0,7.52,2.32,19.79,19.79,0,0,0,12.16-3.62,14.44,14.44,0,0,0,4.92-11.43m10.27,19.54h-4c-4.63,0-6.94-2.46-6.94-7.53a23.46,23.46,0,0,1-17.95,8.68A18.21,18.21,0,0,1,1377.7,104a13,13,0,0,1-4.63-10.56,11.86,11.86,0,0,1,4.2-10.13,21.54,21.54,0,0,1,9.84-3.76l11.14-1.31a19.88,19.88,0,0,0,5.93-1.44c1.74,0,2.46-2.32,2.46-4.78a10.56,10.56,0,0,0-3-8.54,14.51,14.51,0,0,0-9-2.17c-8.68,0-13.31,3.62-14.47,10.86h-5.35a14.45,14.45,0,0,1,5.93-12,21,21,0,0,1,13.17-3.77c11.86,0,17.8,4.92,17.8,14.47V97.53a6.74,6.74,0,0,0,0,3.62,2.9,2.9,0,0,0,2.46,1h3.9Zm-55.56,0h-5.65V57.88h5.65Zm0-59h-5.65v-8.4h5.65ZM1348,61.79c-10.28,0-15.49,5.64-15.49,17.07v27.5h-5.49V57.88h5.35v8.54a15.33,15.33,0,0,1,16.21-10Zm-39.22,25.75v-6.8a28.93,28.93,0,0,1-8.39,1.6h-8.54a15.74,15.74,0,0,0-7.38,3.32,9.27,9.27,0,0,0-3.61,7,7.92,7.92,0,0,0,3.47,6.94,11.43,11.43,0,0,0,7.52,2.32,19.79,19.79,0,0,0,12.16-3.62A14.47,14.47,0,0,0,1309,86.82m11.14,18.81h-3.91c-4.77,0-7.09-2.46-7.09-7.52a23.44,23.44,0,0,1-17.8,8.25,18.3,18.3,0,0,1-11.43-3.48,13,13,0,0,1-4.63-10.56,12.32,12.32,0,0,1,4.2-10.13,21.54,21.54,0,0,1,9.84-3.76l11.14-1.3a21.17,21.17,0,0,0,6.08-1.45c1.59,0,2.31-2.32,2.31-4.78a10.54,10.54,0,0,0-3-8.53,14.38,14.38,0,0,0-9-2.17c-8.68,0-13.31,3.61-14.47,10.85H1277a14.47,14.47,0,0,1,5.93-12,21,21,0,0,1,13.17-3.76c11.87,0,17.8,4.92,17.8,14.47V97.53a6.74,6.74,0,0,0,0,3.62,3.06,3.06,0,0,0,2.46,1h2.31ZM1267,92.9a12.44,12.44,0,0,1-5.93,10.85,23.25,23.25,0,0,1-12.59,3.18,20.47,20.47,0,0,1-13.16-4.19A15.64,15.64,0,0,1,1230,91.16h5.79a10.71,10.71,0,0,0,3.76,8.39,14.45,14.45,0,0,0,9,3.19,19.34,19.34,0,0,0,8.69-1.88,8,8,0,0,0,4.48-7.38c0-3.62-2.75-6.23-8.1-7.82l-14.47-4A11.72,11.72,0,0,1,1230,70.47a12.57,12.57,0,0,1,5.21-10.56,18.73,18.73,0,0,1,11.58-3.48,20.26,20.26,0,0,1,12.73,3.91,14.45,14.45,0,0,1,5.5,11.58h-5.64a10.58,10.58,0,0,0-4.06-8,14.45,14.45,0,0,0-16.06,0,7.07,7.07,0,0,0-3.47,6.36c0,3.91,2.6,6.81,8,8.4l14.47,3.9A11.87,11.87,0,0,1,1266,94.2m-50.5-15.77a21.08,21.08,0,0,0-3.91-11.87A13.32,13.32,0,0,0,1201,61.35a14.46,14.46,0,0,0-11.14,5.07,19.41,19.41,0,0,0-4.2,12Zm5.79,4.63H1185.1a22.15,22.15,0,0,0,3.77,13.46,13.6,13.6,0,0,0,12.15,6.22,14.43,14.43,0,0,0,9.55-3,12.42,12.42,0,0,0,4.92-8.39h5.64a17.32,17.32,0,0,1-6.65,12.15,22,22,0,0,1-13.46,4.2,18.82,18.82,0,0,1-16.21-7.67,29.07,29.07,0,0,1-4.92-17.8,30.47,30.47,0,0,1,4.92-18.09A19.26,19.26,0,0,1,1201,56.43c14.47,0,20.69,8.83,20.69,26.63M1174.4,62.22c-10.28,0-15.49,5.64-15.49,17.08v27.06h-5.5V57.88h5.36v8.54a15.35,15.35,0,0,1,15.63-9.7Zm-36.76,19.83a23.7,23.7,0,0,0-3.76-14.47,16.06,16.06,0,0,0-25.61,0,25.55,25.55,0,0,0-3.48,14.47,25.07,25.07,0,0,0,3.62,14.47,16.18,16.18,0,0,0,25.61.14,25.13,25.13,0,0,0,3.62-14.47m5.79,0a28.92,28.92,0,0,1-5.21,17.94,19.37,19.37,0,0,1-16.49,7.67A18.36,18.36,0,0,1,1104.94,98V126.9h-5.21v-69h5.5v8.83a18.11,18.11,0,0,1,17.07-10,19.24,19.24,0,0,1,16.35,7.67,29,29,0,0,1,4.49,17.66m-56.43,24.31h-5.65v-34a14.35,14.35,0,0,0-2.17-8.68,10.14,10.14,0,0,0-8.1-2.9,13.44,13.44,0,0,0-10.27,4.06,14.44,14.44,0,0,0-3.91,10.41v31.12H1051v-33c0-8-3.33-12-10.13-12a13.92,13.92,0,0,0-14.33,14.91v30.1H1021V57.88h5.07V66a16.52,16.52,0,0,1,15.77-9.55A12.45,12.45,0,0,1,1056.32,66a16.52,16.52,0,0,1,14.47-9.55A14.48,14.48,0,0,1,1087,69a14.7,14.7,0,0,1,0,3.38Zm-76,0H965.88V38.92h43.41v5.5H972.1V68.88h34.59v5.64H972.1v26.77H1011ZM932.89,57.88l-21.27,57.88a20,20,0,0,1-4.78,7.67,12,12,0,0,1-8.39,2.75,14.79,14.79,0,0,1-3.76,0v-5.5l3.76.72a8,8,0,0,0,7.24-5.35l3.47-9.12-19.1-49.05h6.08l15.48,41.24L927,57.88Zm-74.52,48.48h-5.5V38.92h5.5ZM833.48,87.54v-6.8a29.93,29.93,0,0,1-8.54,1.6h-8.53a14.47,14.47,0,0,0-7.24,3.32,8.87,8.87,0,0,0-3.62,7,8.09,8.09,0,0,0,3.33,6.94,11.86,11.86,0,0,0,7.67,2.32,19.34,19.34,0,0,0,12-3.62,14.46,14.46,0,0,0,5.06-11.43m11.15,18.81h-4.06c-4.63,0-6.94-2.46-6.94-7.52a23.62,23.62,0,0,1-17.94,8.25,17.55,17.55,0,0,1-11.29-3.48,12.74,12.74,0,0,1-4.78-10.56,12,12,0,0,1,4.35-10.13A20.77,20.77,0,0,1,814,78.43l10.85-.15a19.63,19.63,0,0,0,6.08-1.44,4.82,4.82,0,0,0,2.46-4.49,10.12,10.12,0,0,0-3.19-8.54,14.52,14.52,0,0,0-8.83-2.17c-8.82,0-13.45,3.62-13.74,10.86h-5.5a14.45,14.45,0,0,1,5.93-12,21.39,21.39,0,0,1,13.31-3.77c11.87,0,17.8,4.92,17.8,14.47V97.53a7.07,7.07,0,0,0,.15,3.76,3.14,3.14,0,0,0,2.6,1h2.32Zm-55.71,0h-5.5V57.88h5.5Zm0-59h-5.5V38.92h5.5Zm-15.49,43a19.23,19.23,0,0,1-6.65,13.17,20.7,20.7,0,0,1-14.47,4.77A18.77,18.77,0,0,1,738,100a28.07,28.07,0,0,1-5.07-17.65A28.89,28.89,0,0,1,738,64.25a19,19,0,0,1,16.35-7.82,19.83,19.83,0,0,1,13.31,4.49,16.51,16.51,0,0,1,5.93,12.15h-6.65a12.71,12.71,0,0,0-4.49-8.53,14.49,14.49,0,0,0-9.26-3.19A13.62,13.62,0,0,0,741,67.86a24.29,24.29,0,0,0-3.62,14.48A24.73,24.73,0,0,0,741,96.81a13.6,13.6,0,0,0,12.3,6.65,12.9,12.9,0,0,0,9.55-3.62,15.77,15.77,0,0,0,4.63-9.4Zm-54.84-7.52a24.71,24.71,0,0,0-3.62-14.47,16.06,16.06,0,0,0-25.61,0,24.76,24.76,0,0,0-3.76,14.47,25,25,0,0,0,3.76,14.47,16.29,16.29,0,0,0,25.61,0,25.07,25.07,0,0,0,3.62-14.47m5.93,0a28.9,28.9,0,0,1-5.35,18.23,21,21,0,0,1-17.07,7.23,20.67,20.67,0,0,1-16.93-7.23,28.9,28.9,0,0,1-5.21-18.23,28.93,28.93,0,0,1,5.21-18.24,20.4,20.4,0,0,1,16.93-7.38,21,21,0,0,1,17.07,7.24,29.75,29.75,0,0,1,5.35,18.38M672,88.7a17.64,17.64,0,0,1-6.94,14.47,32,32,0,0,1-34.3,0,20.52,20.52,0,0,1-6.94-16.93H630A16.07,16.07,0,0,0,635.38,99a21.35,21.35,0,0,0,13.46,4,20,20,0,0,0,11.58-3,11.74,11.74,0,0,0,5.21-10.71A13.33,13.33,0,0,0,655.21,76.4l-19.39-5.35A16.07,16.07,0,0,1,625.4,55.13a16.34,16.34,0,0,1,6.8-14.47,26.26,26.26,0,0,1,15.19-4.2,23.9,23.9,0,0,1,16.21,5.07A19.1,19.1,0,0,1,670,57.88H663.6A14.47,14.47,0,0,0,659,46.59a17.73,17.73,0,0,0-11.87-3.18,18.76,18.76,0,0,0-10.85,2.75,11.85,11.85,0,0,0-4.63,10c0,5.21,3.47,9.12,10.56,11.29l19.25,5.79A16.49,16.49,0,0,1,672,89.43m-86.82-6.66a24.73,24.73,0,0,0-3.62-14.47,16.06,16.06,0,0,0-25.61,0,24.76,24.76,0,0,0-3.76,14.47,25,25,0,0,0,3.76,14.47,16.29,16.29,0,0,0,25.61,0,25,25,0,0,0,3.62-14.47m5.94,0A29,29,0,0,1,585.75,101a23.59,23.59,0,0,1-33.35.66l-.65-.66a28.9,28.9,0,0,1-5.21-18.23,28.9,28.9,0,0,1,5.21-18.23,20.4,20.4,0,0,1,16.93-8.11,20.71,20.71,0,0,1,17.07,7.24,29.82,29.82,0,0,1,5.36,18.38m-57.89,0a24.69,24.69,0,0,0-3.76-14.47,16,16,0,0,0-25.61,0,25.68,25.68,0,0,0-3.62,14.47A25.11,25.11,0,0,0,504,96.52a16.19,16.19,0,0,0,25.62.14,25.12,25.12,0,0,0,3.61-14.47m5.79,0a28.86,28.86,0,0,1-5.21,17.94,19.8,19.8,0,0,1-16.64,7.67A18.08,18.08,0,0,1,500.52,98V126.9h-5.64v-69h5.64v8.83a18,18,0,0,1,16.93-10,18.82,18.82,0,0,1,16.35,7.67,28.87,28.87,0,0,1,5.21,18m-56.87,24h-5.49V98.54a17.67,17.67,0,0,1-16.21,9.12c-10.85,0-16.35-5.79-16.35-17.37V57.88h5.5V89a16.72,16.72,0,0,0,2.46,10.13,11.58,11.58,0,0,0,9.4,3.62,14.51,14.51,0,0,0,11.29-4.63,17.54,17.54,0,0,0,3.76-11.29V57.88h5.64ZM436.56,63c-10.27,0-15.48,5.64-15.48,17.07v26.34h-5.5V57.88h5.36v8.54a15.35,15.35,0,0,1,15.62-9.7Zm-33.42,43.41h-4.92l-.73-12a22.53,22.53,0,0,1-9.69,10.41,27.34,27.34,0,0,1-13.75,3.48,27,27,0,0,1-22.86-10.71A40.77,40.77,0,0,1,344,72.35a39.23,39.23,0,0,1,7.37-24.89A27.81,27.81,0,0,1,374.49,37a31,31,0,0,1,18.37,5.07,23,23,0,0,1,9.41,15.77H395.9A17.18,17.18,0,0,0,388.23,46a23.1,23.1,0,0,0-13.6-2.61,21.25,21.25,0,0,0-18.81,8.83,34.57,34.57,0,0,0-5.5,20.11A36.31,36.31,0,0,0,355.68,93a20.54,20.54,0,0,0,18.08,9.7,22.32,22.32,0,0,0,17.66-7.09,27,27,0,0,0,5.79-18.38H375.07V72.35h28.07Z"/><path d="M1414,185.8v-5.65a20.37,20.37,0,0,1-6.08,2,23,23,0,0,0-6.22,1.88,4.92,4.92,0,0,0-3,4.63,5.8,5.8,0,0,0,1.6,4.2,5.9,5.9,0,0,0,4.34,1.73,11,11,0,0,0,6.8-2.31,8.4,8.4,0,0,0,2.6-6.51m18.52,17.79h-17.07a27.69,27.69,0,0,1-.87-5.2,21.57,21.57,0,0,1-15.92,6.8,16.54,16.54,0,0,1-11.14-3.77,15.65,15.65,0,0,1,3.62-24.45,57.87,57.87,0,0,1,14.47-3.76c5.35-.73,8-2,8-3.91v-1.16c0-3-2.17-4.48-6.37-4.48s-7.38,1.88-8.1,5.64h-14.47c1.44-11.14,9.26-16.78,23.29-16.78a22.29,22.29,0,0,1,17.08,5.2,25.6,25.6,0,0,1,4.48,17.37V193.9c0,4.34,0,7.09,2.32,7.81ZM1377,188.11a14.46,14.46,0,0,1-7.82,13.6,30.62,30.62,0,0,1-16.06,3.62,32.86,32.86,0,0,1-15.91-3.47,15.77,15.77,0,0,1-8.54-13.31h17.07q0,6.51,8.68,6.51t7.38-4.78c0-1.88-2.6-3.62-8-5.06a86.86,86.86,0,0,1-14.47-4.92,12.87,12.87,0,0,1-8-11.87,14.44,14.44,0,0,1,6.94-12.73,27.67,27.67,0,0,1,14.47-3.62c14.47,0,22.29,4.92,23.3,14.47h-15.92c0-3.33-3-4.92-7.23-4.92s-6.08,1.45-6.08,4.34,2.6,3.91,8,5.21a78.73,78.73,0,0,1,14.47,4.49,12.74,12.74,0,0,1,8,12.15m-57,15.63h-16.5V178.56a52.07,52.07,0,0,0,0-8.83,5.93,5.93,0,0,0-6.37-4.77c-5.5,0-8.25,4-8.25,12v26.62h-15.77V153.82h14.47v6.8a16.64,16.64,0,0,1,14.47-8.1,15.63,15.63,0,0,1,13,4.92,22.31,22.31,0,0,1,3.47,14.47Zm-71.63-29.81a11.15,11.15,0,0,0-2.32-7.52,8.51,8.51,0,0,0-6.94-2.75c-5.5,0-8.54,3.33-9.12,10.27Zm15.63,6.22a15.61,15.61,0,0,1,0,2.9h-33.57c0,7.23,2.89,10.71,8.82,10.71a7.4,7.4,0,0,0,8.25-5.36h15.63a21,21,0,0,1-9,12.88,26.74,26.74,0,0,1-15.49,4.34,24,24,0,0,1-18.37-7.23,27,27,0,0,1-6.52-19,28.11,28.11,0,0,1,6.37-20,26.48,26.48,0,0,1,37.45,0l0,0a29,29,0,0,1,6.37,19.83m-54-14.47h-8.1V203h-15.63V165.1h-7.09V155h7.09a20.57,20.57,0,0,1,0-3.33,15.8,15.8,0,0,1,4.34-12.59,19.49,19.49,0,0,1,13-3.47H1211v10.85h-2.32c-2.75,0-4.49.87-5.06,2.46a16,16,0,0,0,0,5.93h8.1Zm-50.79,9.11a11.09,11.09,0,0,0-2.46-7.52,8.24,8.24,0,0,0-6.8-2.75c-5.5,0-8.54,3.33-9.12,10.27Zm15.63,6.22a14.05,14.05,0,0,1,0,2.9h-33.57c0,7.23,2.89,10.71,8.83,10.71a7.38,7.38,0,0,0,8.24-5.36h15.63a21,21,0,0,1-9,12.88,26.71,26.71,0,0,1-15.48,4.34,24,24,0,0,1-18.38-7.23,26.94,26.94,0,0,1-6.51-19,28,28,0,0,1,6.37-20,26.47,26.47,0,0,1,37.44,0l0,0a29,29,0,0,1,6.37,19.83m-74.38-9.7a24.8,24.8,0,0,0-3.18-14.47,13.44,13.44,0,0,0-12.3-5.64h-9.41v39.07h9.41a13.47,13.47,0,0,0,12.3-5.65,23.85,23.85,0,0,0,3.18-13.74m17.37,0a28.92,28.92,0,0,1-32.85,34.72h-26.62V136.16h28.94a29,29,0,0,1,23.44,9.26,37.1,37.1,0,0,1,7.38,24.6M1004.23,185.8v-5.65a20.46,20.46,0,0,1-6.08,2,26.8,26.8,0,0,0-6.37,1.88,4.94,4.94,0,0,0-3,4.63,5.93,5.93,0,0,0,5.94,5.93h0a10.42,10.42,0,0,0,6.8-2.31,8,8,0,0,0,2.75-6.51m17.8,17.79h-16.79a28.53,28.53,0,0,1-.87-5.2,21,21,0,0,1-15.77,6.8,17,17,0,0,1-11.29-3.77A15.82,15.82,0,0,1,981.08,177a57.87,57.87,0,0,1,14.47-3.76c5.35-.73,8-2,8-3.91v-1.16c0-3-2.17-4.48-6.51-4.48s-7.38,1.88-8,5.64H974.56c1.45-11.14,9.26-16.78,23.3-16.78a22.59,22.59,0,0,1,17.08,5.2,26.36,26.36,0,0,1,4.48,17.37V193.9c0,4.34,0,7.09,2.32,7.81Zm-57.88,0H948.08V136.16h16.21Zm-67-30a11.15,11.15,0,0,0-2.32-7.52,8.37,8.37,0,0,0-6.8-2.75c-5.5,0-8.68,3.33-9.26,10.27Zm15.63,6.22v2.9H878.63c0,7.23,2.89,10.71,8.82,10.71a7.68,7.68,0,0,0,8.4-5.36h15.77a21,21,0,0,1-9,12.88,26.74,26.74,0,0,1-15.49,4.34,23.44,23.44,0,0,1-18.23-7.23,26.34,26.34,0,0,1-6.65-19,28,28,0,0,1,5.93-20,26.54,26.54,0,0,1,37.48.15,28.94,28.94,0,0,1,5.93,20.4M837,178.27c0-8.82-3.18-13.17-9.69-13.17a8.11,8.11,0,0,0-7.38,4.35,17.67,17.67,0,0,0-2,8.82c0,9.12,3.19,13.75,9.7,13.75s9.4-4.63,9.4-13.75m16.79,25.47h-16.5v-6.66a16.63,16.63,0,0,1-14.47,8A18.36,18.36,0,0,1,807,196.79,30.69,30.69,0,0,1,801.93,179a32.79,32.79,0,0,1,4.92-18.09,18.09,18.09,0,0,1,15.78-8.68A16.5,16.5,0,0,1,837.1,160V136.16h16.64Z"/></g></g></g></g></svg>